<?xml version="1.0" encoding="UTF-8"?>
<svg id="Calque_1" data-name="Calque 1" xmlns="http://www.w3.org/2000/svg" viewBox="0 0 723.25 1314.87">
  <defs>
    <style>
      .cls-1 {
        fill: none;
        stroke: #1d1d1b;
        stroke-miterlimit: 10;
      }
    </style>
  </defs>
  <g id="FDI_36" data-name="FDI 36">
    <path class="cls-1" d="M575.02,1022.78c-11.02-11.03-14.71-33.79-8.09-47.87,1.28-2.72,5.09-6,5.52-7.47,1.37-4.58-1.01-10.09-.86-14.81.29-9.09,12.99-34.02,21.53-37.53,17.34-7.12,53.73-5.98,69.01,6.06,6.16,4.85,25.6,32.28,28.3,39.7,6.24,17.14-.67,54.81-13.24,68.31-9.43,10.14-29.55,15.29-43.05,15.03-12.01-.24-50.74-13.03-59.13-21.43ZM617.65,913.14c-3.55-3.61-7.46,15.52-6.97,18.42.45,2.65,6.91,10.05,8.8,13.24,1.65,2.8,1.72,7.91,5.11,8.39l-3.92,5.44c2.69,3.78,4.82-.59,7.39-1.59s5.72-.48,7.59-1.41c2.36-1.17,1.98-4.92,3.24-6.27.68-.73,12.1-4.3,9.75-6.24-3.58-.45-7.81.66-10.71,2.78-3.98,2.9-3.98,9.25-10.28,8.22,1.12-4.98-2.75-5.75-4.35-8.27-7.85-12.29-10.24-17.7-5.66-32.73ZM653.65,933.13c-2.69-8.51-7.99-13.9-17.38-12.87-3.8.41-10.68,3.77-4.09,3.92,3.05.07,5.97-1.5,8.7-.85s11.56,11.09,12.76,9.8ZM593.65,926.14c-2.43-2.44-5.08,4.5-5.97,5.52-1.02,1.17-2.69,1.58-3.88,3.12-2.89,3.74-4.65,10.66-4.13,15.35,4.72-.54,4.02-7.37,5.59-10.9,1.22-2.73,10.58-10.9,8.4-13.09ZM663.65,954.14c-7.27,1.69.87,10.95,1.07,15.51s-3.12,8.12-3.06,12.48l3.08-.59c.56-3.86,3.99-8.08,3.95-11.93-.05-4.91-6.4-9.91-5.04-15.48ZM644.65,969.13c1-3.21-3.15-7.8-5.96-8.58-10.85-3-17.58,29.21-.53,27.62,13.53-1.26,6.87-24.34-5.5-16.04-.89-11.7,11.33-2.28,11.98-3ZM621.66,974.12c8.56-6.4-.79-15.79-8.37-11.85-2.93,1.52-7.65,7.42-1.93,7.71,2.2.11,2.63-3.82,5.22-4.41,2.27-.51,5.36,2.26,3.65,4.6-2.71,1.7-5.75,1.93-5.55,5.95,4.45-.2,9.1,1.61,6.06,6.56-4.37,7.11-6.65-3.87-12.05-2.55.69,17.76,29.47,3.31,12.99-6.02ZM606.65,969.16c-7.11.6-12.94-5.63-19.99-3.01l16.59,6.9,3.4.08v-3.97ZM573.66,983.14v25.5c0,.61,6.66,9.62,9.01,6.99-.89-3.92-4.96-6.23-5.78-10.22-1.28-6.29.86-13.56-.94-20.1-.49-1.78.32-2.58-2.29-2.17ZM615.97,1009.83c-2.28-2.72-4.29-11.46-2.8-14.68.19-.41,5.37-6.08,0-5.01-1.87.37-2.42,4.79-3.5,5.51-1.21.82-3.53.35-5.05.95-5.29,2.07-9.15,12.67-13.96,16.53,9.42.69,9.27-14.26,19-13-.54,3.4,1.84,6.93.82,10.29-.47,1.55-2.73,2.73-3.66,4.38-2.26,3.98-3.95,8.33-6.16,12.33,5.4,3.96,8.37-15.02,13.5-15.05,5.47-.04,1.83,11.7,5,14.04,2.01,0,1.8-9.73,1.47-11.45-.65-3.42-3.31-3.24-4.66-4.84ZM654.65,1005.14c-6.66,2.48-3.38,12.54-8.33,17.66-4.64,4.8-15.53,2.94-17.66,10.33,17.42-1.66,26.11-10.24,25.99-27.99Z"/>
    <path d="M617.65,913.14c-4.58,15.03-2.19,20.44,5.66,32.73,1.6,2.51,5.47,3.28,4.35,8.27,6.3,1.03,6.3-5.32,10.28-8.22,2.91-2.12,7.14-3.22,10.71-2.78,2.35,1.94-9.07,5.5-9.75,6.24-1.26,1.35-.88,5.09-3.24,6.27-1.87.93-5.08.44-7.59,1.41s-4.71,5.36-7.39,1.59l3.92-5.44c-3.39-.47-3.46-5.59-5.11-8.39-1.89-3.2-8.36-10.59-8.8-13.24-.49-2.91,3.42-22.03,6.97-18.42Z"/>
    <path d="M615.97,1009.83c1.35,1.6,4.01,1.42,4.66,4.84.33,1.72.54,11.45-1.47,11.45-3.17-2.34.47-14.08-5-14.04-5.13.04-8.1,19.01-13.5,15.05,2.22-4,3.9-8.35,6.16-12.33.93-1.64,3.19-2.83,3.66-4.38,1.02-3.36-1.36-6.89-.82-10.29-9.72-1.26-9.57,13.68-19,13,4.81-3.85,8.68-14.45,13.96-16.53,1.53-.6,3.85-.13,5.05-.95,1.07-.73,1.62-5.14,3.5-5.51,5.37-1.07.19,4.6,0,5.01-1.5,3.22.51,11.96,2.8,14.68Z"/>
    <path d="M644.65,969.13c-.66.73-12.87-8.69-11.98,3,12.37-8.3,19.03,14.78,5.5,16.04-17.05,1.59-10.32-30.62.53-27.62,2.81.78,6.96,5.37,5.96,8.58ZM638.38,974.37c-6.5-.08-7.89,5.03-4.2,9.74,6.62,8.47,11.07-9.66,4.2-9.74Z"/>
    <path d="M621.66,974.12c16.48,9.33-12.31,23.78-12.99,6.02,5.4-1.32,7.67,9.66,12.05,2.55,3.05-4.95-1.61-6.76-6.06-6.56-.19-4.02,2.85-4.25,5.55-5.95,1.71-2.34-1.38-5.12-3.65-4.6-2.59.59-3.01,4.52-5.22,4.41-5.72-.29-.99-6.19,1.93-7.71,7.58-3.94,16.94,5.45,8.37,11.85Z"/>
    <path d="M654.65,1005.14c.13,17.75-8.57,26.33-25.99,27.99,2.13-7.39,13.01-5.54,17.66-10.33,4.96-5.12,1.68-15.18,8.33-17.66Z"/>
    <path d="M573.66,983.14c2.61-.42,1.79.39,2.29,2.17,1.81,6.54-.34,13.81.94,20.1.82,3.99,4.89,6.3,5.78,10.22-2.35,2.63-9.01-6.39-9.01-6.99v-25.5Z"/>
    <path d="M663.65,954.14c-1.35,5.57,5,10.56,5.04,15.48.04,3.84-3.39,8.06-3.95,11.93l-3.08.59c-.05-4.36,3.26-8.1,3.06-12.48s-8.35-13.82-1.07-15.51Z"/>
    <path d="M593.65,926.14c2.18,2.19-7.17,10.37-8.4,13.09-1.58,3.53-.88,10.35-5.59,10.9-.51-4.7,1.24-11.61,4.13-15.35,1.19-1.54,2.86-1.95,3.88-3.12.89-1.02,3.54-7.95,5.97-5.52Z"/>
    <path d="M653.65,933.13c-1.2,1.29-9.92-9.12-12.76-9.8s-5.65.92-8.7.85c-6.59-.15.29-3.51,4.09-3.92,9.39-1.02,14.69,4.37,17.38,12.87Z"/>
    <path d="M606.65,969.16v3.97s-3.39-.08-3.39-.08l-16.59-6.9c7.05-2.62,12.88,3.61,19.99,3.01Z"/>
  </g>
  <g id="FDI_46" data-name="FDI 46">
    <path class="cls-1" d="M87.46,911.43c9.86-.92,34.56-.66,42.71,4.69,1.37.9,6.39,6.06,7.49,7.51,4.06,5.37,14.22,26.66,13.93,32.93-.14,3.02-3.23,6.94-2.76,9.85.38,2.36,5.7,8.59,7.11,12.94,5.85,18.07-.56,38.83-16.97,48.58-19.89,11.82-51.21,19.93-73.74,13.13-29.84-9-31.21-31.54-34.82-58.18-.34-2.5-2.15-5.44-2.27-7.24-.97-14.13,22.46-49.04,34.23-56.33,7.29-4.51,16.59-7.1,25.1-7.9ZM108.65,913.14c-5.33.2-1.26,8.87-1.01,12.51.78,11.39-1.99,7.8-6.39,14.57-2.21,3.4-4.61,9.67-6.51,13.49-5.51,2.28-5.68-3.57-8.05-6.11-1.66-1.78-10.24-5.98-12.02-4.47.34,4.34,6.47,4.03,9.08,6.41,1.73,1.58,1.75,3.85,2.87,5.13,2.02,2.3,9.75,3.02,13.04,4.45-4.4-11.97,10.09-17.09,11.78-27.74.97-6.12-2.38-12.13-2.78-18.25ZM68.66,933.13c8.01.96,6.67-9.67,14.58-9.92,3-.1,6.85,2.75,9.4-.57-3.17-2.98-11-3.39-14.74-1.84-.86.35-10.99,10.61-9.23,12.33ZM142.65,950.13c1.07-4.31.43-8.79-1.78-12.7-1.94-3.44-4.29-3.6-6.23-5.77-.62-.69-2.47-6.97-4.97-4.52-2.8,2.76,7.67,10.68,8.43,12.06,1.66,3,1.09,8.9,4.55,10.94ZM62.65,954.14c-3.45-3.36-7.7,11.65-7.92,13.59-.57,4.99.94,10.17,3.42,14.43l2.51-.53c.4-3.47-2.78-7-2.67-10.84.09-3.02,5.77-15.56,4.65-16.65ZM87.65,960.14c-1.84-.44-1.94.62-2.83,1.66-2.11,2.44-13.22,18.23-11.16,20.33h11.01s0,6.01,0,6.01h3.99s.16-5.87.16-5.87l3.84-1.65-4.06-3.1-.94-17.38ZM111.65,969.13c-2.49-11.31-14.81-10.27-16.77.74-1.15,6.48-1.2,17.52,7.27,18.3,15.68,1.44,10.72-23.2-3.49-17.04,2.26-12.45,10.23.52,12.99-2ZM135.65,966.14c-8.38-1.72-14.86,5.22-22.99,2,.7,9.27,11.23,2.71,16.6,1.01,2.51-.79,6.56.99,6.38-3.01ZM149.66,983.14l-3.06.44c-1.99,1.46-.5,16.11-1.03,19.97-.58,4.22-4.27,7.69-3.42,11.58l7.5-7.5v-24.5ZM126.01,1006.79c-3.02-3.23-3.22-8.21-8.31-10.19-1.52-.59-4.02-.16-5.08-.92s-1.37-6.47-3.45-6.53c-1.95-.05-.94,2.9-.84,3.8.47,4.09,1.9,7.07,1.28,11.61-.97,7.05-6.17,5.49-7.49,9.51l-.44,11.06h3.99c.06-5.92-1.36-17.3,6.51-9.01,1.23,1.3,7.02,12.74,8.49,11,2.48-9.75-15.51-17.68-6.96-26.49,5.67-5.83,10.72,15.66,18.96,12.48-.63-3.56-4.66-4.2-6.65-6.34ZM93.65,1033.13c-1.48-7.12-13.12-5.53-16.97-9.52-2.21-2.29-1.45-5.98-2.51-8.49-.78-1.85-4.37-9.72-6.52-8.49l2.53,11.48c3.25,10.47,13.58,13.83,23.47,15.02Z"/>
    <path d="M126.01,1006.79c1.99,2.14,6.02,2.78,6.65,6.34-8.25,3.18-13.29-18.32-18.96-12.48-8.56,8.8,9.44,16.73,6.96,26.49-1.47,1.74-7.25-9.71-8.49-11-7.87-8.29-6.45,3.09-6.51,9.01h-3.99s.44-11.06.44-11.06c1.32-4.02,6.53-2.46,7.49-9.51.62-4.54-.8-7.52-1.28-11.61-.1-.9-1.11-3.85.84-3.8,2.08.05,2.41,5.79,3.45,6.53s3.56.33,5.08.92c5.09,1.97,5.3,6.95,8.31,10.19Z"/>
    <path d="M108.65,913.14c.4,6.13,3.75,12.13,2.78,18.25-1.68,10.65-16.18,15.77-11.78,27.74-3.29-1.43-11.02-2.15-13.04-4.45-1.12-1.28-1.14-3.55-2.87-5.13-2.6-2.38-8.74-2.07-9.08-6.41,1.79-1.51,10.36,2.69,12.02,4.47,2.37,2.53,2.54,8.39,8.05,6.11,1.9-3.82,4.3-10.09,6.51-13.49,4.4-6.77,7.17-3.18,6.39-14.57-.25-3.64-4.32-12.31,1.01-12.51Z"/>
    <path d="M111.65,969.13c-2.76,2.52-10.72-10.45-12.99,2,14.21-6.16,19.17,18.48,3.49,17.04-8.47-.78-8.42-11.82-7.27-18.3,1.96-11.01,14.27-12.04,16.77-.74ZM107.51,975.29c-2.55-1.33-5.77-1.73-7.93.52-4.13,13.3,11.41,14.51,7.93-.52Z"/>
    <path d="M87.65,960.14l.94,17.38,4.06,3.1-3.84,1.65-.16,5.87h-3.99s0-6.01,0-6.01h-11.01c-2.05-2.1,9.05-17.89,11.16-20.33.89-1.03.99-2.09,2.83-1.66ZM84.66,979.14l-.5-10-6.5,9.99h7Z"/>
    <path d="M93.65,1033.13c-9.89-1.19-20.23-4.55-23.47-15.02l-2.53-11.48c2.16-1.23,5.74,6.64,6.52,8.49,1.06,2.51.3,6.2,2.51,8.49,3.85,3.99,15.49,2.41,16.97,9.52Z"/>
    <path d="M149.66,983.14v24.5l-7.5,7.5c-.85-3.89,2.84-7.36,3.42-11.58.53-3.86-.96-18.51,1.03-19.97l3.06-.44Z"/>
    <path d="M62.65,954.14c1.12,1.09-4.56,13.62-4.65,16.65-.11,3.84,3.07,7.37,2.67,10.84l-2.51.53c-2.48-4.26-3.99-9.44-3.42-14.43.22-1.94,4.47-16.95,7.92-13.59Z"/>
    <path d="M68.66,933.13c-1.76-1.72,8.37-11.98,9.23-12.33,3.74-1.55,11.58-1.14,14.74,1.84-2.55,3.32-6.39.48-9.4.57-7.91.25-6.56,10.88-14.58,9.92Z"/>
    <path d="M142.65,950.13c-3.46-2.04-2.89-7.94-4.55-10.94-.77-1.38-11.24-9.3-8.43-12.06,2.49-2.45,4.35,3.83,4.97,4.52,1.94,2.17,4.29,2.33,6.23,5.77,2.21,3.92,2.85,8.39,1.78,12.7Z"/>
    <path d="M135.65,966.14c.18,4-3.87,2.22-6.38,3.01-5.37,1.7-15.9,8.26-16.6-1.01,8.13,3.23,14.61-3.72,22.99-2Z"/>
  </g>
  <g id="FDI_37" data-name="FDI 37">
    <path class="cls-1" d="M622.44,792.41c23.66-2.82,68.86,2.83,81.66,25.78,10.3,18.46,10.73,65.96-3.46,82.42-17.92,20.79-70.58,9.3-92.96,0-15.44-6.41-22.3-12.87-23.89-30.11-1.04-11.25,1.67-27.1,2.99-38.75,2.05-17.92,17.01-37.12,35.66-39.34ZM621.65,799.14c-14.69,4.71-21.45,10.63-17.99,27,3.53.77,1.66-5.74,2.11-8.39.39-2.31,1.07-5.71,2.4-7.6,3.52-4.96,13.54-4.02,13.48-11.01ZM655.65,815.14c-4.4-.89-11.31,5.18-15.06,2.55-4.12-2.88,4.78-12.24,2.58-15.57-2.66-4.24-7.51,11.71-7.49,12.54.04,2.36,3.66,3.73,3.75,4.96-2.53,5.61-8.79,9.6-7.76,16.51,4.71-1.21,4.86-6,7.16-9.33,4.5-6.54,9.33-5.54,14.96-9.07,1.32-.83,2.39-.12,1.86-2.6ZM684.66,841.14v-15.5c0-2.49-5.93-8.17-7.99-10.01-1.4-1.26-8.25-7.77-8.04-3.97.32,5.77,8.97,6.63,11.26,11.75,2.45,5.47,1.71,12.03.77,17.73h3.99ZM623.65,839.14c-6.3.35-12-.04-17.99-2v3.97c6.11-.41,11.07,3.94,16.71.27.98-.64,1.78.08,1.28-2.24ZM624.66,857.14c.33,11.54,18.26,10.08,17.08-1.52-.23-2.27-1.88-3.48-2.1-5.06-.34-2.46,1.42-4.66.84-7.67-1.3-6.73-14.7-6.59-15.84,1.75-.37,2.68,2.63,1.23,4.35,1.54l1.8-3.91c3.1-.45,5.26-1.02,5.55,2.53.44,5.51-6.5,2.56-6.68,7.32,9.82-2.9,10.61,10.46,2.52,9.07-2.92-.5-2.85-5.51-7.52-4.06ZM662.66,838.14h-18v4s11,0,11,0c.77.7-7.05,15.47-7.05,19.52,0,1.66.13,2.45,1.55,3.45,4.66-2.82,3.46-7.85,4.99-11.99.95-2.56,9.56-12.91,7.51-14.99ZM597.65,851.14h-3.99c-.31,11.61-8.22,33.73,9.99,33.98-1.1-3.16-5.27-3.15-6.9-5.59-4.67-7.01.27-20.54.89-28.39ZM669.65,858.13c.69-4.14-11.03-5.9-11.99-4.99-.74,5.78,8.23,4.8,11.99,4.99ZM633.65,868.14c-3.58-.47-2.37,3.78-3.97,5.52-1.28,1.39-5.4,1.7-7.29,2.71-4.03,2.16-7.33,8.26-7.73,12.76,5.24,1.13,4.61-7.95,7.99-9.5,2.03-.93,4.28-.09,6.31-.69,1.54-.45,2.47-3,4.06-2.74,2.23.37,9.57,11.67,8.64,14.93,7.17-.92-1.65-12.95-3.98-16.24-1.42-2.01-5.2-2.05-4.03-6.75ZM679.65,870.14c-6.27-.51-4.44,8.03-5.44,12.05-.61,2.46-2.29,7.32-3.7,9.3-2.61,3.68-6.7,3.58-9.38,6.62-.9,1.03-2.22,2.74.04,3.02,1.13.14,7.26-2.6,8.44-3.54,6.17-4.87,9.93-19.82,10.03-27.46Z"/>
    <path d="M624.66,857.14c4.67-1.45,4.6,3.55,7.52,4.06,8.1,1.4,7.31-11.97-2.52-9.07.18-4.77,7.12-1.82,6.68-7.32-.29-3.55-2.44-2.98-5.55-2.53l-1.8,3.91c-1.72-.31-4.71,1.14-4.35-1.54,1.14-8.34,14.54-8.48,15.84-1.75.58,3.01-1.17,5.21-.84,7.67.22,1.58,1.86,2.79,2.1,5.06,1.18,11.61-16.76,13.07-17.08,1.52Z"/>
    <path d="M662.66,838.14c2.05,2.08-6.56,12.43-7.51,14.99-1.53,4.14-.33,9.17-4.99,11.99-1.42-1-1.55-1.79-1.55-3.45,0-4.05,7.82-18.82,7.05-19.52h-11s0-4.01,0-4.01h18Z"/>
    <path d="M655.65,815.14c.52,2.48-.54,1.77-1.86,2.6-5.63,3.52-10.46,2.53-14.96,9.07-2.3,3.33-2.45,8.12-7.16,9.33-1.03-6.91,5.22-10.9,7.76-16.51-.09-1.23-3.71-2.6-3.75-4.96-.01-.83,4.84-16.77,7.49-12.54,2.2,3.33-6.7,12.69-2.58,15.57,3.75,2.62,10.66-3.45,15.06-2.55Z"/>
    <path d="M633.65,868.14c-1.17,4.7,2.61,4.74,4.03,6.75,2.33,3.3,11.16,15.32,3.98,16.24.93-3.27-6.42-14.57-8.64-14.93-1.59-.26-2.53,2.29-4.06,2.74-2.03.59-4.28-.25-6.31.69-3.38,1.56-2.75,10.64-7.99,9.5.39-4.51,3.7-10.61,7.73-12.76,1.89-1.01,6.01-1.33,7.29-2.71,1.6-1.74.39-5.99,3.97-5.52Z"/>
    <path d="M679.65,870.14c-.11,7.64-3.86,22.58-10.03,27.46-1.18.94-7.31,3.68-8.44,3.54-2.26-.28-.94-2-.04-3.02,2.67-3.04,6.77-2.95,9.38-6.62,1.41-1.98,3.09-6.85,3.7-9.3,1-4.01-.83-12.56,5.44-12.05Z"/>
    <path d="M597.65,851.14c-.63,7.86-5.56,21.39-.89,28.39,1.63,2.44,5.8,2.43,6.9,5.59-18.21-.26-10.3-22.37-9.99-33.99h3.99Z"/>
    <path d="M684.66,841.14h-3.99c.94-5.7,1.67-12.26-.77-17.73-2.29-5.12-10.94-5.98-11.26-11.75-.21-3.8,6.64,2.71,8.04,3.97,2.06,1.84,7.99,7.52,7.99,10.01v15.5Z"/>
    <path d="M621.65,799.14c.06,6.99-9.96,6.05-13.48,11.01-1.34,1.88-2.02,5.29-2.4,7.6-.44,2.65,1.42,9.16-2.11,8.39-3.46-16.36,3.3-22.28,17.99-27Z"/>
    <path d="M623.65,839.14c.51,2.32-.3,1.61-1.28,2.24-5.65,3.67-10.6-.68-16.71-.27v-3.97c5.98,1.96,11.68,2.35,17.98,2Z"/>
    <path d="M669.65,858.13c-3.76-.19-12.73.79-11.99-4.99.96-.91,12.68.85,11.99,4.99Z"/>
  </g>
  <g id="FDI_47" data-name="FDI 47">
    <path class="cls-1" d="M135.98,878.43c-3.12,5.95-1.73,10.13-8.38,15.14-16.89,12.73-75.37,23.66-94.33,15.45-6.86-2.97-15.46-10.88-18.09-17.91-5.16-13.79-5.64-54.6-.26-68.22,10.34-26.18,58.69-33.68,83.12-30.64,18.74,2.33,34.23,17.13,35.65,36.34.32,4.36-1.1,9.46-.82,12.81.44,5.15,6.07,9.73,6.79,16.23.44,4.01-.25,13.97-.98,18.04-.41,2.3-2.37,2.12-2.71,2.76ZM120.65,826.14c-.1-4.7.43-13.36-2.1-17.4-1.49-2.39-16.17-11.28-17.89-9.6-.09,5.16,5.52,5.08,9.14,7.35,7.71,4.85,8.42,11.01,7.86,19.65h2.99ZM82.65,801.13c-9.99.04,3.46,12.22.91,15.9-1.72.73-3.21,1.17-5.14.93-3.64-.46-11.72-6.47-11.76-.84,6.03,3.23,14.66,3.66,18.42,10.09,1.86,3.19,1.49,8.2,5.57,9.92,2.78-6.34-4.99-12.39-5.88-15.7-.74-2.76,3.1-3.39,2.91-6.7-.23-3.84-6.03-8.93-5.02-13.6ZM54.65,810.14c-2.69-.72-2.36.55-3.29,1.26-3.36,2.59-11.02,8.91-12.44,12.5-1.74,4.38-3.38,18.75,3.75,16.72-1.78-6.35-1.77-15.95,3.06-20.91,3.06-3.15,9.79-3.63,8.92-9.57ZM117.65,837.14c-4.35-.12-8.08,2.2-12.5,2.08-4.01-.11-10.06-4.69-10.5.9,7.25,3.33,14.92,2.43,22.33.03l.67-3.01ZM90.66,838.14h-15.5c-1.07,0-1.91,2.88-1.5,3.99h11.99c.42,3.05-2.45,3.68-3.58,5.89-2.35,4.61-3.5,9.85-5.4,14.64l3.52,1.25,9.98-20.74.47-5.03ZM68.65,839.13c-1.74-.14-3.07-.15-4.56.93s-9.74,11.9-10.22,13.78c-.35,1.4-.25,2.86-.22,4.28h10.01s0,6,0,6l4.06-.44,1.05-5.51c7.52-.31.22-4.7-.14-6.53-.41-2.11.52-12.04.02-12.54ZM129.57,851.23l-2.42-1.08c-3.97.12,1.14,14.19,1.39,16.58,1.1,10.64-2.8,11.16-8.89,18.39,18.04-2.27,10.5-21.68,9.91-33.89ZM108.65,889.13c-1.06-5.57-3.74-10.86-8.93-13.56-2.22-1.15-5.71-1.15-7-3-1.71-2.44-1.87-12.18-3.11-15.89-.55-1.63-.76-2.91-2.95-2.54-1.13,5.2,2.53,10.35,1.81,15.23-1.12,7.59-11.89,11.63-10.81,20.76,4.74.83,3.6-3.8,5.53-6.96.56-.92,6.45-6.76,6.94-6.78,2.65,2.62,7.52,1.78,10.08,3.69,2.94,2.2,2.84,9.95,8.44,9.05ZM46.65,870.14l-3.88,1.57c1.66,8.64,3.2,20.34,10.95,25.86,1.37.97,7.17,3.74,8.42,3.57,1.12-.16,1.65-1.28.54-2.52-1.93-2.16-5.68-2.77-8.07-4.93-5.77-5.22-8.2-16.04-7.96-23.54Z"/>
    <path d="M108.65,889.13c-5.6.9-5.5-6.85-8.44-9.05-2.56-1.91-7.43-1.07-10.08-3.69-.48.01-6.38,5.85-6.94,6.78-1.93,3.16-.79,7.79-5.53,6.96-1.08-9.12,9.69-13.16,10.81-20.76.72-4.88-2.94-10.04-1.81-15.23,2.19-.36,2.4.91,2.95,2.54,1.24,3.71,1.4,13.45,3.11,15.89,1.3,1.84,4.78,1.84,7,3,5.19,2.69,7.87,7.99,8.93,13.56Z"/>
    <path d="M68.65,839.13c.5.49-.43,10.43-.02,12.54.36,1.83,7.66,6.22.14,6.53l-1.05,5.51-4.06.44v-6.01s-10.01,0-10.01,0c-.03-1.42-.14-2.88.22-4.28.47-1.88,8.8-12.75,10.22-13.78,1.49-1.08,2.82-1.08,4.56-.93ZM64.65,854.13l-1.49-6.99-5.5,6.98h7Z"/>
    <path d="M82.65,801.13c-1,4.67,4.8,9.76,5.02,13.6.19,3.31-3.65,3.94-2.91,6.7.89,3.32,8.66,9.36,5.88,15.7-4.08-1.72-3.7-6.73-5.57-9.92-3.75-6.43-12.38-6.86-18.42-10.09.05-5.63,8.13.39,11.76.84,1.92.24,3.41-.2,5.14-.93,2.55-3.69-10.9-15.87-.91-15.9Z"/>
    <path d="M90.66,838.14l-.47,5.03-9.98,20.74-3.52-1.25c1.9-4.79,3.05-10.03,5.4-14.64,1.13-2.21,4-2.84,3.58-5.88h-11.99c-.42-1.13.43-4.01,1.5-4.01h15.5Z"/>
    <path d="M54.65,810.14c.87,5.94-5.86,6.42-8.92,9.57-4.83,4.97-4.84,14.56-3.06,20.91-7.13,2.03-5.49-12.34-3.75-16.72,1.43-3.59,9.08-9.91,12.44-12.5.93-.71.6-1.98,3.29-1.26Z"/>
    <path d="M46.65,870.14c-.24,7.5,2.19,18.32,7.96,23.54,2.39,2.16,6.13,2.77,8.07,4.93,1.11,1.24.58,2.36-.54,2.52-1.25.17-7.05-2.6-8.42-3.57-7.75-5.52-9.29-17.22-10.95-25.86l3.88-1.57Z"/>
    <path d="M129.57,851.23c.58,12.21,8.12,31.62-9.91,33.89,6.09-7.23,9.99-7.74,8.89-18.39-.25-2.39-5.37-16.46-1.39-16.58l2.42,1.08Z"/>
    <path d="M120.65,826.14h-2.99c.56-8.64-.15-14.8-7.86-19.65-3.61-2.27-9.23-2.19-9.14-7.35,1.73-1.69,16.4,7.2,17.89,9.6,2.53,4.05,2,12.7,2.1,17.4Z"/>
    <path d="M117.65,837.14l-.67,3.01c-7.41,2.4-15.07,3.3-22.33-.03.44-5.6,6.49-1.02,10.5-.9,4.42.12,8.14-2.2,12.5-2.08Z"/>
  </g>
  <g id="FDI_16" data-name="FDI 16">
    <path class="cls-1" d="M124.88,376.34c-1.34,2.33,1.21,13.03.78,17.3-1.04,10.27-11.68,20.29-20.62,24.37-33.63,15.38-94.23-7.65-95.44-49.37-.2-6.96,4.99-12.48,4.99-16.02,0-2.52-4.34-6.46-4.75-10.26-1.8-16.35,20.09-42.74,36.58-44.97,13.74-1.86,62.65,6.69,73.74,14.75,15.42,11.21,20.62,43.57,10.34,59.33-1.55,2.38-5.42,4.53-5.61,4.87ZM74.66,310.64v18c0,1.73-4.15,2.2-6.06.05-4.16-4.68.39-20.18-9.94-20.55-.86,3.45,2.91,4.28,3.76,6.73,1.25,3.62.5,9.36,1.98,13.02,1.57,3.88,10.56,9.64,12.75,14.25,1.14-4.18,5.29-2.29,7.55-4.71,1.38-1.48,8.19-18.43,7.94-19.76-.2-1.1-2.07-2.3-3.48-.5-3.44,4.41-4.15,22-13.44,18.89-1.38-3.98,2.35-6.16,2.88-9.47.88-5.51-2.75-11.62.04-17.43-1.32-.28-3.61.12-4,1.49ZM41.61,315.08c.42-1.7.12-5.23-2.33-4.85-9.93,5.84-14.54,16.78-15.61,27.9l3.08-.58c1.05-2.02.49-4.79,1.15-6.68.53-1.52,2.11-2.24,2.62-3.38,2.49-5.55,3.61-12.05,11.09-12.41ZM102.66,364.13c3.44.41,6.54-1.23,8.46-4.03.93-1.36,5.34-13.67,5.58-15.41,1.08-7.72-2.96-11.76-5.52-18.57-1.36-3.61-.18-8.42-5.04-9.96-2.5-.8-.92.87-.71,1.71,3.27,12.87,13.04,26.52,3.09,39.64-1.7,2.24-5.2,3.13-5.86,6.63ZM124.66,343.14c3.42.44,4.38-1.09,3.82-4.26-.34-1.91-7.07-15.4-9.82-12.73-1.4,1.36,8.18,13.41,6,17ZM58.66,371.14l5.67-2.44-.82-22.9-3.31-1.7c-1.98,4.93-8.04,4.76-6.52,11.04l4.99-3v19ZM87.65,352.13c-1.41-5.61-5.38-10.01-11.37-6.86-10.41,5.47-8.3,26.46,2.9,26.94,13.88.59,10.41-25.97-4.51-17.07l2.13-5.84,10.85,2.84ZM50.65,355.13c.41-2.01-.96-2.34-2.29-3.19-5.15-3.32-15.06-1.41-21.23-.83-1.77.16-3.23-.35-4.45,1.53,0,3.32,16.7.15,19.51.47,3.06.35,5.24,2.53,8.46,2.02ZM37.66,370.14h15.5c2.97,0,3.27-4.96,1.99-5.02l-16.23,2.77-1.25,2.25ZM28.99,390.83c-3.1-4.49.6-11.53-3.85-15.68-2.27-.42-1.37.99-1.48,2.47-.89,11.55,5.12,24.21,17.99,24.51.88-4.98-4.6-3.84-7.53-5.96-.3-.22-4.92-5.04-5.13-5.35ZM111.66,375.14h-14.5c-1.6,0-8.17,3.79-11.12,3.97-2.69.17-4.44-1.42-7.4-.56-.88.25-8.06,5.17-8.67,5.9-1.29,1.53-1.82,5.31-3.3,6.21-2.49,1.5-10.13-.92-12,3-.95,1.99,1.64,1.47,2.5,1.51,3.73.2,6.81-1.28,10.41-.94l3.09,20.91c10.34-9.73-7.97-20.83,4.97-30.52,4.71-3.53,5.61-1.77,10.39-2.61,8.55-1.49,16.83-3.73,25.63-2.88v-4ZM91.67,414.14c10.13-3.3,18.83-10.15,16.98-22-4.67,1.24-3.11,7.32-6.13,11.36-3.69,4.94-11.82,4.08-10.85,10.64Z"/>
    <path d="M111.66,375.14v4c-8.8-.85-17.07,1.39-25.63,2.88-4.79.83-5.68-.92-10.39,2.61-12.94,9.69,5.37,20.78-4.97,30.52l-3.09-20.91c-3.6-.34-6.68,1.14-10.41.94-.87-.05-3.45.47-2.5-1.51,1.87-3.92,9.51-1.5,12-3,1.48-.9,2.01-4.67,3.3-6.21.61-.72,7.79-5.64,8.67-5.9,2.96-.86,4.71.73,7.4.56,2.94-.18,9.52-3.97,11.12-3.97h14.5Z"/>
    <path d="M74.66,310.64c.39-1.37,2.67-1.77,4-1.49-2.79,5.82.84,11.92-.04,17.43-.53,3.32-4.25,5.5-2.88,9.47,9.3,3.11,10-14.48,13.44-18.89,1.4-1.8,3.28-.6,3.48.5.24,1.32-6.56,18.27-7.94,19.76-2.26,2.43-6.41.54-7.55,4.71-2.19-4.6-11.18-10.37-12.75-14.25-1.48-3.65-.73-9.39-1.98-13.02-.85-2.45-4.62-3.28-3.76-6.73,10.33.36,5.78,15.86,9.94,20.55,1.91,2.15,6.06,1.68,6.06-.05v-18Z"/>
    <path d="M87.65,352.13l-10.85-2.84-2.13,5.84c14.92-8.9,18.39,17.66,4.51,17.07-11.19-.48-13.31-21.47-2.9-26.94,5.99-3.15,9.96,1.25,11.37,6.86ZM75.9,358.38c-3.11,3.16-.95,12.27,5.73,9.23,7.57-3.43-.8-14.24-5.73-9.23Z"/>
    <path d="M102.66,364.13c.66-3.5,4.16-4.39,5.86-6.63,9.95-13.12.18-26.77-3.09-39.64-.21-.84-1.8-2.5.71-1.71,4.86,1.55,3.69,6.35,5.04,9.96,2.56,6.81,6.6,10.85,5.52,18.57-.24,1.73-4.65,14.05-5.58,15.41-1.92,2.8-5.02,4.44-8.46,4.03Z"/>
    <path d="M58.66,371.14v-19l-4.99,3c-1.52-6.29,4.54-6.11,6.52-11.04l3.31,1.7.82,22.9-5.67,2.44Z"/>
    <path d="M41.61,315.08c-7.48.36-8.61,6.86-11.09,12.41-.51,1.14-2.08,1.86-2.62,3.38-.66,1.89-.1,4.66-1.15,6.68l-3.08.58c1.08-11.12,5.68-22.07,15.61-27.9,2.45-.38,2.75,3.16,2.33,4.85Z"/>
    <path d="M28.99,390.83c.21.31,4.83,5.13,5.13,5.35,2.93,2.12,8.41.98,7.53,5.96-12.87-.3-18.89-12.96-17.99-24.51.11-1.48-.79-2.89,1.48-2.47,4.45,4.16.75,11.19,3.85,15.68Z"/>
    <path d="M91.67,414.14c-.97-6.55,7.17-5.7,10.85-10.64,3.02-4.04,1.46-10.12,6.13-11.36,1.85,11.85-6.85,18.7-16.98,22Z"/>
    <path d="M50.65,355.13c-3.23.51-5.4-1.67-8.46-2.02-2.81-.32-19.51,2.85-19.51-.47,1.22-1.88,2.67-1.37,4.45-1.53,6.18-.57,16.08-2.49,21.23.83,1.33.86,2.7,1.19,2.29,3.19Z"/>
    <path d="M124.66,343.14c2.18-3.59-7.4-15.64-6-17,2.74-2.67,9.48,10.83,9.82,12.73.57,3.18-.4,4.71-3.82,4.26Z"/>
    <path d="M37.66,370.14l1.25-2.25,16.23-2.77c1.29.06.98,5.02-1.99,5.02h-15.5Z"/>
  </g>
  <g id="FDI_26" data-name="FDI 26">
    <path class="cls-1" d="M663.46,297.43c25.65-1.78,38.4,9.7,47.38,33.02,4.2,10.91,3.66,12.8-3.21,22.26-.33,3.9,5.3,5.25,6.01,8.95,3,15.75-11.85,39.9-25.06,47.9-12.19,7.38-36.23,13.8-50.41,13.66-16.65-.16-42.73-14.58-41.56-33.62.24-3.83,2.62-7.18,1.88-10.74-.88-4.22-8.37-9.69-10.37-17.7-4.15-16.67.54-37.74,14.62-48.45,10.85-8.25,46.5-14.3,60.71-15.29ZM649.75,330.04c-3.35-2.24,3.48-18.88-2.61-21.9-5.14,1.23-.6,4.54-.39,7.48.25,3.5-2.4,6.51-2.18,10.02.23,3.74,4.65,6.34,4.08,10.47-9.45,3.63-10.38-13.09-14.1-18.37-1.22-1.72-1.77-1.87-3.88-1.61.83,2.66.87,6.08,1.92,8.57.97,2.31,2.91,3.2,3.86,5.14,2.36,4.79-.04,9.96,8.18,9.32.73.78-1.28,4.73,1.52,3.95,4.05-1.43,3.77-5.05,5.98-8.03,1.85-2.49,5.13-3.64,6.77-6.23,2.77-4.37,1.12-7.64,1.99-12.01.35-1.74,4.62-7.96,3.77-8.72l-4.51.98c-2.22,2.66-3.54,25.49-10.39,20.91ZM699.65,338.13c-2.08-9.93-5.12-27.18-17.99-26.99.05,5.73,6.58,4.51,9.42,9.07,2.67,4.28,2.85,14.07,5.5,17.3.93,1.14,1.88.55,3.07.62ZM619.65,316.14c-4-3.77-10.98,16.55-11.52,18.96-2,8.88-.91,21.29,7.03,27.03,1.13.81,6.91,3.82,5.49.52-1.51-3.51-8.21-8.46-9.53-13.48-3.13-11.93,4.28-22.57,8.53-33.03ZM604.65,326.14c-3.35-3.49-12.65,13.82-7.48,16.99l3.28-8.69c1.56-2.99,5.19-4.1,4.2-8.29ZM631.66,371.14h19v-4s-10.99,0-10.99,0c.95-4.07,5.89-5.36,8.42-9.06,8.92-13.02-14-20.65-15.42-4.94,6.5.98,4.02-.94,5.48-2.96,1.73-2.38,6.87-.71,8.47,1.45-2.83,8.31-13.99,10.5-14.95,19.51ZM669.65,352.13c-8.87-19.62-22.24-.1-16.69,14.2,5.6,14.4,24.6.28,14.37-10.88-4.78-5.22-10.05.37-10.67-.32-.36-11.66,11.65-1.71,12.99-3ZM698.66,351.14c-9.28.25-23.59-4.79-29.01,4.99,4.48.36,8.2-2.65,12.5-3.01,5.36-.44,10.94,1.93,16.5,1.01v-2.99ZM685.66,370.13c-3.01-5.5-10.03-4.42-15-2.98-3.09,4.09,13.54,2.98,15,2.98ZM655.67,394.13c4.15.88,10.39,2.54,13.97-.49.03-1.94-10.75-1.72-12.94-3.04-1.14-.68-4.13-6.41-6.51-8.49-6.42-5.64-6.61-2.72-12.89-3.02-4.38-.21-22.83-7.98-25.64-3.94l1.68,4.03c8.04-1,15.23,1.5,22.94,2.84,5.2.91,7.12-1.37,11.92,3.08,7.98,7.4-.54,19.8,3.48,29.03,1.32.26,1.56-1.81,1.74-2.74.49-2.66,1.27-16.56,2.26-17.26ZM699.65,375.13l-3.08.59c-1.21,10.6-1.18,22.25-14.92,22.42.53,7.53,4.17,2.94,7.1,1.59,1.44-.67,3.09-.65,4.45-1.55,4.82-3.17,6.53-17.41,6.45-23.05ZM631.65,414.13c1.33-6.85-8.05-5.94-11.03-10.45-2.47-3.74-.83-9.38-4.46-12.52-3.86-.13,1.26,13.82,2.47,15.51,1.13,1.58,12.23,8.35,13.02,7.47Z"/>
    <path d="M649.75,330.04c6.86,4.57,8.17-18.25,10.39-20.91l4.51-.98c.84.76-3.42,6.97-3.77,8.72-.87,4.36.77,7.63-1.99,12.01-1.64,2.59-4.92,3.74-6.77,6.23-2.21,2.97-1.93,6.6-5.98,8.03-2.8.78-.79-3.17-1.52-3.95-8.22.64-5.82-4.52-8.18-9.32-.95-1.93-2.89-2.83-3.86-5.14-1.04-2.49-1.09-5.92-1.92-8.57,2.11-.26,2.67-.12,3.88,1.61,3.73,5.28,4.65,21.99,14.1,18.37.57-4.13-3.85-6.73-4.08-10.47-.22-3.51,2.43-6.53,2.18-10.02-.21-2.94-4.75-6.25.39-7.48,6.09,3.02-.75,19.66,2.61,21.9Z"/>
    <path d="M655.67,394.13c-.99.71-1.77,14.6-2.26,17.26-.17.92-.41,3-1.74,2.74-4.01-9.23,4.51-21.63-3.48-29.03-4.8-4.45-6.72-2.17-11.92-3.08-7.71-1.35-14.9-3.84-22.94-2.84l-1.68-4.03c2.81-4.04,21.26,3.73,25.64,3.94,6.28.3,6.47-2.62,12.89,3.02,2.38,2.09,5.36,7.81,6.51,8.49,2.2,1.31,12.98,1.1,12.94,3.04-3.57,3.03-9.82,1.37-13.97.49Z"/>
    <path d="M669.65,352.13c-1.34,1.29-13.35-8.66-12.99,3,.63.69,5.89-4.9,10.67.32,10.23,11.16-8.77,25.28-14.37,10.88-5.56-14.3,7.82-33.82,16.69-14.2ZM664.42,358.38c-5.17-5.25-12.39,5.88-5.78,9.27s9.26-5.74,5.78-9.27Z"/>
    <path d="M631.66,371.14c.97-9.01,12.13-11.2,14.95-19.51-1.6-2.16-6.74-3.84-8.47-1.45-1.46,2.02,1.02,3.93-5.48,2.96,1.43-15.71,24.35-8.08,15.42,4.94-2.54,3.7-7.48,4.99-8.42,9.06h11s0,4.01,0,4.01h-19Z"/>
    <path d="M619.65,316.14c-4.25,10.46-11.66,21.1-8.53,33.03,1.32,5.02,8.01,9.97,9.53,13.48,1.43,3.31-4.36.3-5.49-.52-7.94-5.74-9.03-18.15-7.03-27.03.54-2.41,7.52-22.73,11.52-18.96Z"/>
    <path d="M699.65,375.13c.08,5.64-1.63,19.88-6.45,23.05-1.36.89-3.02.88-4.45,1.55-2.93,1.36-6.57,5.95-7.1-1.59,13.74-.17,13.71-11.82,14.92-22.42l3.08-.59Z"/>
    <path d="M699.65,338.13c-1.18-.07-2.13.52-3.07-.62-2.65-3.24-2.83-13.02-5.5-17.3-2.85-4.56-9.38-3.34-9.42-9.07,12.87-.19,15.92,17.06,17.99,26.99Z"/>
    <path d="M631.65,414.13c-.8.88-11.89-5.89-13.02-7.47-1.21-1.68-6.33-15.63-2.47-15.51,3.63,3.14,1.99,8.78,4.46,12.52,2.98,4.51,12.36,3.6,11.03,10.45Z"/>
    <path d="M698.66,351.14v2.99c-5.56.92-11.14-1.45-16.5-1.01-4.31.35-8.02,3.37-12.5,3.01,5.42-9.77,19.73-4.74,29.01-4.99Z"/>
    <path d="M604.65,326.14c.99,4.19-2.64,5.3-4.2,8.29l-3.28,8.69c-5.17-3.16,4.13-20.47,7.48-16.99Z"/>
    <path d="M685.66,370.13c-1.46,0-18.09,1.11-15-2.98,4.97-1.44,11.99-2.52,15,2.98Z"/>
  </g>
  <g id="FDI_17" data-name="FDI 17">
    <path class="cls-1" d="M114.94,495.92c2.08,3.82,2.37,6.19,1.64,11.63-5.71,42.56-67.02,30.55-93.59,17.76-14.12-6.8-24.18-23.51-22.24-39.57.67-5.57,6.22-7.73,5.92-12.04-.21-3-5.36-9.56-5.9-15.19-1.3-13.58,14.7-33.85,27.86-36.91,11.29-2.62,10.25.16,18.59,1.48,19.64,3.1,36.99.06,53.97,14.03,12.93,10.64,22.56,33.82,17.2,50.24-.85,2.61-4.44,6.72-3.44,8.57ZM65.67,428.14c-3.1,5.16,1.45,10.02.99,14.41-.31,2.94-4.61,10.64-7.23,5.32-3.88-7.86.97-18.69-13.76-19.73-.61,5.6,7.44,5.87,9.28,10.28,1.52,3.65-1.89,7.8,2.69,13.24.99,1.17,3.04,1.63,3.93,3.07,1.34,2.17.59,6.34,2.61,7.39,3.49,1.81,1.36-8.55,1.42-9.47.51-8.87,11.76-6.08,16.06-12.04.41-2.12-.9-1.61-2.39-1.4-2.11.3-8.2,2.72-9.5,1.83-2.64-3.9,1.49-12.35-4.08-12.91ZM20.65,463.13c-3.8-11.92,4.4-20.02,7.02-29.52.46-1.66,1.58-2.03-.53-3.47l-7.2,11.78c-2.62,6.41-5.97,14.23-3.14,21.06l3.85.15ZM98.64,479.13c3.47-9.65,9.94-15.83,5.2-26.68-.92-2.11-9.89-13.61-12.18-11.31.11,4.95,5.49,6.1,7.83,10.66,6.27,12.24-2.96,17.14-2.87,25.81.02,1.98.09,1.62,2.02,1.52ZM54.66,464.14l-9.99,7.52,1.52,2.49,5.48-2v20l3-1v-27ZM79.66,464.14h-17v5.01s10.99,0,10.99,0c.23,2.65-2.44,2.66-3.78,4.71-1.42,2.18-7.04,19.51-1.73,18.28,3.13-3.72,2.59-8.44,4.66-13.35,2.3-5.44,7.59-8.61,6.85-14.65ZM42.65,475.14c-7.24,3.14-13.47.58-21,1v2.99c5.47.33,10.66,1.78,16.26.76,2.63-.48,5.53-1.34,4.74-4.75ZM101.66,489.14c-3.12.02-6.25-.17-9.38.13-4.77.44-21.79,2.93-25.34,4.66-2.16,1.05-5.24,4.41-6.54,6.46s-1.66,5.19-2.39,5.85c-1.52,1.39-15.25,5.25-15.34,7.4,4.12,4.3,8.85-2.55,13.48-2.56,2.61,0,8.6,3.19,9.34,5.79,1,3.52-3.89,10.59,2.16,11.27l1.02-14.29-6.99-6.17c4.36-17.31,26.13-13.35,39.99-15.54v-2.99ZM20.66,494.64v15c0,1.21,4.12,6.47,5.51,7.49,1.07.8,3.98,3.09,4.49.49.46-2.33-4.08-3.79-5.04-5.2-2.03-2.98-2-8.3-2-11.83,0-2.35,2.96-10.23-2.95-5.96ZM92.66,524.13c1.86,2.01,11.88-11.79,9.98-14.99-2.57,1.24-11.81,13.02-9.98,14.99Z"/>
    <path d="M101.66,489.14v2.99c-13.85,2.19-35.63-1.77-39.99,15.54l6.99,6.17-1.02,14.29c-6.05-.67-1.16-7.75-2.16-11.27-.74-2.6-6.73-5.79-9.34-5.79-4.63,0-9.36,6.86-13.48,2.56.1-2.15,13.82-6.01,15.34-7.4.73-.67,1.14-3.88,2.39-5.85s4.38-5.41,6.54-6.46c3.56-1.73,20.57-4.21,25.34-4.66,3.12-.29,6.26-.1,9.38-.13Z"/>
    <path d="M65.67,428.14c5.57.56,1.45,9.01,4.08,12.91,1.3.89,7.39-1.53,9.5-1.83,1.49-.21,2.8-.72,2.39,1.4-4.3,5.96-15.55,3.17-16.06,12.04-.05.92,2.07,11.28-1.42,9.47-2.03-1.05-1.27-5.23-2.61-7.39-.89-1.44-2.94-1.9-3.93-3.07-4.58-5.44-1.17-9.59-2.69-13.24-1.83-4.41-9.89-4.68-9.28-10.28,14.73,1.04,9.88,11.87,13.76,19.73,2.62,5.32,6.92-2.38,7.23-5.32.46-4.39-4.09-9.25-.99-14.41Z"/>
    <path d="M79.66,464.14c.74,6.04-4.55,9.21-6.85,14.65-2.08,4.91-1.53,9.62-4.66,13.35-5.31,1.23.31-16.11,1.73-18.28,1.34-2.05,4.01-2.06,3.78-4.71h-11s0-5.01,0-5.01h17Z"/>
    <path d="M98.64,479.13c-1.94.11-2,.46-2.02-1.52-.09-8.67,9.14-13.58,2.87-25.81-2.34-4.56-7.72-5.71-7.83-10.66,2.3-2.3,11.26,9.2,12.18,11.31,4.74,10.85-1.74,17.03-5.2,26.68Z"/>
    <path d="M20.65,463.13l-3.85-.15c-2.83-6.84.52-14.66,3.14-21.06l7.2-11.78c2.12,1.44.99,1.81.53,3.47-2.62,9.5-10.82,17.6-7.02,29.52Z"/>
    <polygon points="54.66 464.14 54.66 491.14 51.66 492.14 51.66 472.14 46.18 474.14 44.66 471.65 54.66 464.14"/>
    <path d="M20.66,494.64c5.92-4.27,2.95,3.61,2.95,5.96,0,3.53-.03,8.84,2,11.83.96,1.41,5.49,2.87,5.04,5.2-.51,2.6-3.42.3-4.49-.49-1.38-1.02-5.51-6.29-5.51-7.49v-15Z"/>
    <path d="M42.65,475.14c.8,3.41-2.1,4.27-4.74,4.75-5.6,1.02-10.79-.44-16.26-.76v-2.99c7.53-.42,13.76,2.14,21-1Z"/>
    <path d="M92.66,524.13c-1.83-1.97,7.42-13.76,9.98-14.99,1.89,3.21-8.12,17.01-9.98,14.99Z"/>
  </g>
  <g id="FDI_27" data-name="FDI 27">
    <path class="cls-1" d="M684.47,420.43c6.79-.31,15.79,1.68,21.09,6.31,3.45,3.01,15.55,20.21,16.62,24.37,2.86,11.05-5.99,14.94-5.62,23.55.31,7.31,7.04,3.16,6.08,14.98-1.73,21.33-13.44,32.67-32.47,39.52-28.96,10.42-83.18,18.29-84.44-26.67-.1-3.55,2.17-6.27,1.92-8.79s-3.43-4.32-3.95-7.1c-3.37-18.2,5.8-42.27,21.63-52.27,13.03-8.24,43.55-13.18,59.13-13.89ZM678.65,427.14c-1.16-1.23-11.32,6.29-12.46,8.03-3.26,5,.55,10.79-4.05,14.96-2.28.54-5.92-8.25-5.52-10.34.15-.76,1.85-.18,2.11-2.09.24-1.77.29-8.25-1.01-9.14l-4.06-.43c1.53,4.47,1.15,8.43-.08,12.9l-12.92-1.91.6,3.08c5.05,1.75,16.68,4.03,17.4,10.5.31,2.82-1.76,6.28-.99,9.42h2.99c-1.91-6.4,6.67-11.35,7.78-15.76,1.72-6.83-3.97-5.82,4.72-13.25,2.27-1.94,6.34-1.85,5.5-5.99ZM706.65,463.14c.85-11.54-.68-21.24-8.59-29.91-1.01-1.11-1.47-2.51-3.4-2.09-.94,4.94,3.17,6.81,5.19,10.3,3.71,6.41,5.23,14.62,2.81,21.68h4ZM631.66,441.15c-9.56,1.98-15.23,13.78-13.54,23.04.41,2.24,4.71,14.32,6.17,14.83.73.25,3.4.52,3.39-.39-2.54-8.33-7.94-13.29-5.8-22.78,1.06-4.71,8.29-9.68,9.79-14.7ZM652.66,487.13c3.27-4.65,9.47-6.49,10.77-12.72,2.73-13.06-15.3-13.3-16.76-2.28,5.18,1.14,9.63-8.92,12.97-.52.11,5.06-14.78,13.15-12.91,18.9.96,2.96,14.07,1.7,16.88.55l-.53-3.02-10.41-.92ZM682.16,464.14h-15l-1.5,5h12c-4.84,6.13-8.21,15.06-6.49,23.01,4.13-1.39,3.45-7.2,5-11,1.4-3.42,10.49-15.63,5.99-17.01ZM702.65,476.14c-4.27-.83-8.49.93-12.45,1.03-2.89.07-6.92-2.96-9.53.46.05,3.4,17.04,2.85,20.24,1.26,1.36-.68,2.07-1.05,1.74-2.75ZM643.66,491.14l-22.01-2v2.99s22.01,2,22.01,2v-2.99ZM664.77,507.02c-1.48-7.17-5.88-14.47-14.11-13.88,2.46,4.68,10.43,6.91,11,12.59.65,6.45-6.64,5.29-7.81,9.1-1.26,4.11.91,9.26,1.87,13.26l2.93.06-1.07-12.32c8.84-7.43,11.29-3.86,19.59-.69.83.32,3.61,1.5,3.46-.49-.16-2.2-12.6-9.39-15.87-7.61ZM698.66,494.64v16c0,1.29-7.52,4.35-6.01,7.99,1,1.66,2.22-.32,3.02-.98,1.02-.85,6.68-5.74,6.83-6.17.89-2.59.81-16.71-1.84-17.85l-2,1.01ZM623.59,509.2l-3.93-.06c0,6.87,6.48,10.86,10.99,14.99.48-6.71-7.43-8.87-7.06-14.94Z"/>
    <path d="M678.65,427.14c.84,4.14-3.22,4.05-5.5,5.99-8.69,7.43-3,6.42-4.72,13.25-1.11,4.41-9.69,9.36-7.78,15.77h-2.99c-.77-3.14,1.3-6.6.99-9.42-.72-6.47-12.35-8.75-17.4-10.5l-.6-3.08,12.92,1.91c1.24-4.47,1.61-8.43.08-12.9l4.06.43c1.3.88,1.26,7.37,1.01,9.14-.26,1.9-1.96,1.32-2.11,2.09-.4,2.09,3.24,10.88,5.52,10.34,4.6-4.17.79-9.96,4.05-14.96,1.14-1.74,11.3-9.26,12.46-8.03Z"/>
    <path d="M652.66,487.13l10.41.92.53,3.02c-2.81,1.15-15.91,2.41-16.88-.55-1.87-5.75,13.02-13.85,12.91-18.9-3.34-8.4-7.79,1.65-12.97.52,1.47-11.02,19.5-10.79,16.76,2.28-1.3,6.23-7.5,8.07-10.77,12.72Z"/>
    <path d="M664.77,507.02c3.27-1.77,15.71,5.41,15.87,7.61.15,2-2.63.81-3.46.49-8.3-3.17-10.75-6.73-19.59.69l1.07,12.32-2.93-.06c-.96-4-3.13-9.15-1.87-13.26,1.17-3.8,8.46-2.65,7.81-9.1-.57-5.67-8.54-7.91-11-12.59,8.23-.59,12.63,6.71,14.11,13.88Z"/>
    <path d="M682.16,464.14c4.5,1.38-4.58,13.59-5.99,17.01-1.56,3.79-.87,9.6-5,11-1.72-7.95,1.65-16.89,6.49-23h-12s1.5-5.01,1.5-5.01h15Z"/>
    <path d="M631.66,441.15c-1.5,5.02-8.73,9.99-9.79,14.7-2.13,9.48,3.26,14.44,5.8,22.78.01.92-2.66.65-3.39.39-1.45-.5-5.76-12.59-6.17-14.83-1.69-9.26,3.99-21.06,13.54-23.04Z"/>
    <path d="M706.65,463.14h-4c2.42-7.08.91-15.29-2.81-21.7-2.02-3.49-6.13-5.36-5.19-10.3,1.93-.42,2.39.98,3.4,2.09,7.91,8.67,9.45,18.37,8.59,29.91Z"/>
    <path d="M698.66,494.64l2-1.01c2.64,1.13,2.73,15.25,1.84,17.85-.15.44-5.81,5.32-6.83,6.17-.8.67-2.02,2.64-3.02.98-1.51-3.64,6.01-6.7,6.01-7.99v-16Z"/>
    <polygon points="643.66 491.14 643.66 494.13 621.65 492.13 621.65 489.14 643.66 491.14"/>
    <path d="M702.65,476.14c.33,1.7-.38,2.08-1.74,2.75-3.2,1.59-20.18,2.14-20.24-1.26,2.61-3.42,6.63-.39,9.53-.46,3.96-.1,8.18-1.87,12.45-1.03Z"/>
    <path d="M623.59,509.2c-.37,6.07,7.54,8.22,7.06,14.94-4.51-4.13-10.98-8.13-10.99-14.99l3.93.06Z"/>
  </g>
  <g id="FDI_38" data-name="FDI 38">
    <path class="cls-1" d="M640.4,679.37c20.11-3.12,55.75,2.66,65.29,23.23,8.92,19.24,8.5,60.18-7.04,76.02-23.85,24.31-90.7,10.62-94.88-25.1-1.55-13.19,3.42-19.83,4.81-30.97,1.02-8.23-3.77-10.91-.11-20.12,3.97-9.99,21.63-21.46,31.94-23.06ZM650.65,687.14c-5.34-1.23-5.33,10.14-4.99,13.49.28,2.79,2.98,7.32,2.89,7.86-.32,1.84-8.37,6.55-5.88,11.64l21.01-18.48c1.14-.51,12.41-1.3,6.73-3.79-7.81-3.42-16.75,10.36-19.73,8.26-2.71-6.08-.88-12.6-.02-18.99ZM630.31,692.26c-7.97,4.81-16.77,14.09-11.15,23.86,2.99-3.22.57-7.52,2.26-11.72,1.9-4.72,9.18-6.11,11.22-10.76l-2.32-1.37ZM685.65,733.14c-.98-5.9,2.22-12.82,1.95-18.37-.09-1.9-3.51-15.04-6.94-11.63.16,3.86,2.62,6.49,3,10.49.59,6.23-2.04,13.03-1,19.51h2.99ZM637.65,725.15c-5.14-.9-12.16-5.45-16.98-1.51,3.32,3.71,10.91,5,15.51,3.53,1.4-.45,1.79.61,1.47-2.02ZM671.73,737.03c5.67-7.74-1.1-19.09-9.59-12.91-7.42,5.4-.64,10.01-.65,11.52,0,.53-3.17,2.91-3.65,5.22-2.09,9.99,14.03,12.57,16.38,5.33,1.01-3.1,1.52-8.8-2.49-9.17ZM641.55,741.25c-8.03-.85-.64,8.44,3.09,9.48,5.12,1.44,11.08-3.73,11.08-9.1,0-3.32-2.57-4.61-2.82-6.16-.3-1.89,1.99-4.08,1.59-6.63-1.29-8.29-15.48-7.56-15.87.76-.28,5.91,6.27-2.22,6.68-2.36,3.51-1.2,5.52,1.79,3.92,4.94l-4.97,1.85c-2.97,4.81,4.35,2.93,6.52,5.51,2.64,3.14-1.69,8.03-5.45,7.49l-3.77-5.79ZM613.66,742.14v22.5c0,.89,9.89,14.78,12.98,9l-8.78-8.2-1.15-22.85-3.06-.44ZM679.66,749.14v18.5c0,2.66-9.51,8-12.02,9l.54,2.52c11.36-1.8,15.73-9.3,15.52-20.46-.02-1.16-1.59-12.38-4.03-9.55ZM647.65,753.13h-2.99c2.1,5.85-5.77,8.23-6.8,11.71-1.15,3.91.23,9.33.8,13.3,1.4,1.48,1.82-.1,1.99-1.48.62-4.91-1.8-11.29,3.66-14.42,4.71-1.26,5.56,11.34,11.33,9.89-1.53-6.94-8.58-11.37-8-19Z"/>
    <path d="M641.55,741.25l3.77,5.79c3.75.54,8.09-4.35,5.45-7.49-2.17-2.58-9.49-.7-6.52-5.51l4.97-1.85c1.6-3.15-.4-6.14-3.92-4.94-.41.14-6.95,8.27-6.68,2.36.39-8.32,14.58-9.06,15.87-.76.4,2.55-1.9,4.73-1.59,6.63.25,1.56,2.82,2.84,2.82,6.16,0,5.37-5.96,10.54-11.08,9.1-3.73-1.05-11.12-10.34-3.09-9.48Z"/>
    <path d="M671.73,737.03c4.01.37,3.49,6.07,2.49,9.17-2.35,7.24-18.47,4.66-16.38-5.33.48-2.31,3.65-4.69,3.65-5.22.01-1.52-6.77-6.12.65-11.52,8.49-6.18,15.26,5.17,9.59,12.91ZM665.37,726.28c-3.59,1-3.7,6.57,0,7.68,8.09,2.41,6.44-9.47,0-7.68ZM664.38,737.3c-4.05,1.18-3.33,7.57-.1,9.72,8.12,5.41,11.36-12.99.1-9.72Z"/>
    <path d="M650.65,687.14c-.86,6.39-2.69,12.9.02,18.99,2.98,2.1,11.92-11.68,19.73-8.26,5.68,2.49-5.58,3.28-6.73,3.79l-21.01,18.48c-2.49-5.09,5.56-9.8,5.88-11.64.09-.54-2.61-5.07-2.89-7.86-.34-3.36-.34-14.73,4.99-13.49Z"/>
    <path d="M613.66,742.14l3.06.44,1.15,22.85,8.78,8.2c-3.09,5.78-12.98-8.11-12.98-9v-22.5Z"/>
    <path d="M647.65,753.13c-.58,7.63,6.47,12.06,8,19-5.76,1.45-6.62-11.15-11.33-9.89-5.46,3.13-3.04,9.51-3.66,14.42-.17,1.39-.59,2.96-1.99,1.48-.57-3.97-1.96-9.39-.8-13.3,1.02-3.48,8.9-5.86,6.8-11.71h2.99Z"/>
    <path d="M679.66,749.14c2.45-2.83,4.01,8.4,4.03,9.55.22,11.16-4.15,18.66-15.52,20.46l-.54-2.52c2.51-.99,12.02-6.34,12.02-9v-18.5Z"/>
    <path d="M685.65,733.14h-2.99c-1.05-6.48,1.58-13.28,1-19.51-.38-4-2.83-6.63-3-10.49,3.43-3.41,6.85,9.73,6.94,11.63.27,5.54-2.93,12.46-1.95,18.37Z"/>
    <path d="M630.31,692.26l2.32,1.37c-2.04,4.66-9.32,6.04-11.22,10.76-1.69,4.2.73,8.5-2.26,11.72-5.62-9.77,3.18-19.05,11.15-23.86Z"/>
    <path d="M637.65,725.15c.32,2.62-.07,1.57-1.47,2.02-4.6,1.46-12.19.18-15.51-3.53,4.82-3.94,11.83.61,16.98,1.51Z"/>
  </g>
  <g id="FDI_48" data-name="FDI 48">
    <path class="cls-1" d="M68.33,678.51c16.07.07,39.13,8.01,44.8,24.65,3.17,9.32-1.23,12.71-.3,18.22.35,2.09,2.8,4.96,3.55,7.52,11.82,39.94-19.52,60.07-55.24,62.21-48.63,2.92-59.79-47.78-46.26-85.26,7.47-20.7,33.34-27.44,53.44-27.35ZM52.66,701.12c6.12-.47,14.8,6.22,19.03,10.48,2.37,2.38,4.17,6.46,6.44,8.56,1.2,1.11,2.35.62,2.52-.54.48-3.42-5.43-8.41-5.76-10.11-.47-2.41,2.91-7.69,2.84-11.87-.04-2.24-1.79-10.57-3.59-11.5-3.07-1.58-.48,8.4-.45,9.45.09,2.47.56,8.57-1,10.1-7.39.03-11.2-9.83-20.03-8.55v3.98ZM105.65,715.14c2.26-10.22-6.68-20.59-15.99-23-.7,4.05,4,4.87,6.47,7.02,5.66,4.93,6.03,8.49,5.53,15.98h3.99ZM42.65,703.14c-8.6-.9-7.37,12.56-6.99,18.48.13,1.94,1.18,11.43,2.48,11.48l3.28-2.44c-2.22-5.37-3.39-11.19-2.77-17.04.54-5.03,3.41-6.1,3.99-10.49ZM101.66,722.14c-.92-.95-17.29,1.62-18.98,4.5-.08,3.53,16.41-.74,18.39-1.41l.59-3.09ZM59.66,723.14c-5.29-.66-4.58,2.61-6.53,4.94-6.46,7.71-17.48,17.15,1.54,15.05-.12,3.59-.88,7.71,3.98,7.01l1.05-6.96,3.95-.05c.84-2.48-4-3.61-4-4.49v-15.5ZM69.35,723.33c-6.38,1.96-1.71,10.37-1.88,12.15-.15,1.53-2.18,2.9-2.59,4.4-3.51,12.85,20.23,15.15,16.58-.04-.45-1.89-2.5-3.39-2.65-4.38-.17-1.14,1.59-2.4,1.85-3.9,1.21-6.98-5.3-10.08-11.31-8.23ZM109.66,742.14l-3.06.44-1.15,21.85c-1.1,3.26-8.29,6.51-8.81,9.2-.77,4,8.33-2.46,9.26-3.46.67-.72,3.75-6.16,3.75-6.53v-21.5ZM43.66,750.14c-5.38.22-4.35,8.41-3.89,12.39.63,5.54,2.37,10.64,7.2,13.8.8.52,8.31,5,7.7,1.31-.58-3.33-4.72-2.92-7.08-4.93-.8-.68-3.93-5.58-3.93-6.07v-16.5ZM77.65,752.14c-2.4-.3-1.6-.04-2.11,1.39-.91,2.56-.65,5.43-2.01,7.99-1.76,3.31-7.14,5.25-5.87,10.62l10.49-9.98c4.55,4.07,3.15,10.73,2.51,15.98h3.99c-.52-4.18,1.75-8.07.8-12.28-1.28-5.71-9.8-6.19-7.8-13.72Z"/>
    <path d="M69.35,723.33c6.01-1.85,12.52,1.26,11.31,8.23-.26,1.49-2.02,2.75-1.85,3.9.15,1,2.2,2.5,2.65,4.38,3.65,15.19-20.09,12.89-16.58.04.41-1.51,2.44-2.87,2.59-4.4.17-1.78-4.5-10.19,1.88-12.15ZM71.3,726.25c-3.82,1.28-1.26,10.24,4.36,7.41,4.41-2.22,1.29-9.3-4.36-7.41ZM77.42,738.38c-4.34-4.34-12.41,1.32-7.46,7.46,4.79,5.93,12.1-2.82,7.46-7.46Z"/>
    <path d="M59.66,723.14v15.5c0,.88,4.84,2.01,4,4.49l-3.95.05-1.05,6.96c-4.87.7-4.11-3.42-3.98-7.01-19.02,2.1-8-7.34-1.54-15.05,1.96-2.34,1.25-5.61,6.53-4.94ZM54.66,740.14l-.5-9-5.5,8.99h6Z"/>
    <path d="M52.66,701.12v-3.98c8.83-1.28,12.65,8.58,20.03,8.55,1.56-1.53,1.09-7.62,1-10.1-.04-1.05-2.62-11.03.45-9.45,1.8.93,3.56,9.26,3.59,11.5.07,4.18-3.3,9.46-2.84,11.87.33,1.69,6.25,6.69,5.76,10.11-.16,1.16-1.31,1.64-2.52.54-2.28-2.1-4.08-6.17-6.44-8.56-4.23-4.26-12.91-10.95-19.03-10.48Z"/>
    <path d="M77.65,752.14c-2,7.53,6.52,8.01,7.8,13.72.95,4.21-1.32,8.1-.8,12.29h-3.99c.64-5.25,2.04-11.91-2.51-15.99l-10.49,9.98c-1.28-5.37,4.11-7.32,5.87-10.62,1.36-2.56,1.1-5.43,2.01-7.99.51-1.43-.29-1.68,2.11-1.39Z"/>
    <path d="M109.66,742.14v21.5c0,.38-3.08,5.81-3.75,6.53-.93,1-10.03,7.46-9.26,3.46.52-2.68,7.71-5.94,8.81-9.2l1.15-21.85,3.06-.44Z"/>
    <path d="M43.66,750.14v16.5c0,.49,3.14,5.39,3.93,6.07,2.36,2.01,6.49,1.6,7.08,4.93.61,3.69-6.9-.78-7.7-1.31-4.83-3.15-6.57-8.26-7.2-13.8-.45-3.98-1.49-12.17,3.89-12.39Z"/>
    <path d="M42.65,703.14c-.58,4.39-3.45,5.46-3.99,10.49-.62,5.84.55,11.67,2.77,17.04l-3.28,2.44c-1.31-.05-2.36-9.54-2.48-11.48-.39-5.93-1.61-19.39,6.99-18.48Z"/>
    <path d="M105.65,715.14h-3.99c.5-7.49.13-11.05-5.53-15.98-2.47-2.15-7.17-2.97-6.47-7.02,9.3,2.41,18.25,12.78,15.99,23Z"/>
    <path d="M101.66,722.14l-.59,3.09c-1.98.67-18.47,4.94-18.39,1.41,1.69-2.87,18.06-5.44,18.98-4.5Z"/>
  </g>
  <g id="FDI_18" data-name="FDI 18">
    <path class="cls-1" d="M48.16,537.7c23.78-.14,60.6,13.03,62.53,40.9.36,5.17-1.01,9.3-1.08,13.99-.13,9.09,1.93,14.81-1.47,23.53-14.71,37.85-88.62,35.59-101.21-2.76-3.74-11.4-5.12-35.5-1.55-47.01,6.39-20.57,22.13-28.54,42.78-28.66ZM44.64,550.14c-7.36,1.41,2.4,7.69,3.48,10.03.71,1.54.35,3.39,1.08,4.92.64,1.34,9.31,9.82,10.44,9.03,3.53-5.2,11.22-16.82,2.02-19.99-.18,3.62,1.56,14.73-4.47,14.03-.35-.04-4.89-4.72-5.03-5.05-.85-1.9-.12-4.17-.99-6-.96-2.02-6.68-3.27-6.53-6.98ZM28.66,551.15c-10.3,4.48-15.52,11.77-13.91,23.4.43,3.11,4.37,12,4.91,5.11.46-5.87-1.85-10.14.32-15.72,1.86-4.78,7.3-7.56,8.69-12.79ZM86.66,593.13c1.53,1.77,5.35-5.71,5.77-6.72,3.64-8.68,2.78-17.13-2.78-24.77-1.36-1.87-8.66-9.55-10.99-7.5,1.35,4.83,7.25,7.5,9.83,11.66,6.92,11.15-.6,16.49-1.83,27.33ZM51.66,573.14c-4.18.18-7.8,4.95-10.99,7.51-1.27,3.17,6.11.1,6.99.49v19h4v-27ZM61.64,586.1c-13.46,7.62,8.61,21.33,13.26,9.78,2.9-7.21-1.82-8.53-1.97-10.23-.1-1.06,2.3-3.57,2.56-5.25,1.6-10.3-26-7.48-13.84,4.26v1.44ZM44.65,590.14c-5.19,2.07-8.68,6.17-15,5v2.99c6.24.52,15.03.03,15-7.99ZM95.66,603.13l-1.47-3.84c-1.24-.17-20.64,7.15-22.48,8.4-3.72,2.54-5.37,9.37-7.22,13.27-2.95-1.18-17.81,3.87-13.83,8.17,1.71,1.84,4.21-2.71,5.27-3.3,1.46-.82,7.37-2.44,8.61-1.58l2.12,13.89h2.99c.78-9.37-4.64-16.23,1.55-24.96,2.79-3.93,9.94-4.76,14.46-6.54,3.32-1.31,5.45-4.66,10-3.51ZM37.65,632.13c-.37-6.01-7.89-7.57-10.41-12.08s-.28-8.31-3.08-11.9c-5.29,9.98,3.46,21.82,13.49,23.97ZM95.65,612.14h-3.97c.37,5.2-1.08,7.63-4.55,11.02-.47.46-5.61,2.97-.92,3.96s9.7-10.97,9.44-14.98Z"/>
    <path d="M61.64,586.1v-1.44c-12.15-11.74,15.45-14.56,13.85-4.26-.26,1.68-2.66,4.2-2.56,5.25.16,1.69,4.87,3.01,1.97,10.23-4.64,11.55-26.72-2.16-13.26-9.78ZM65.3,577.26c-3.54,1.18-1.17,7.72,2.66,6.76,4.16-1.04,3.88-8.95-2.66-6.76ZM70.41,595.89c7.47-7.45-13.26-15.99-6.28.27,1.33,1.65,5.02.99,6.28-.27Z"/>
    <path d="M95.66,603.13c-4.55-1.15-6.69,2.2-10,3.51-4.52,1.78-11.67,2.61-14.46,6.54-6.19,8.74-.77,15.6-1.55,24.96h-2.99s-2.12-13.89-2.12-13.89c-1.24-.86-7.16.76-8.61,1.58-1.06.6-3.56,5.14-5.27,3.3-3.98-4.29,10.87-9.35,13.83-8.17,1.86-3.9,3.51-10.73,7.22-13.27,1.84-1.25,21.23-8.58,22.48-8.4l1.47,3.84Z"/>
    <path d="M44.64,550.14c-.15,3.71,5.57,4.96,6.53,6.98.87,1.84.15,4.1.99,6,.15.33,4.68,5.01,5.03,5.05,6.02.7,4.29-10.42,4.47-14.03,9.19,3.16,1.51,14.79-2.02,19.99-1.13.79-9.8-7.69-10.44-9.03-.73-1.53-.37-3.38-1.08-4.92-1.08-2.34-10.84-8.63-3.48-10.03Z"/>
    <path d="M86.66,593.13c1.23-10.84,8.75-16.18,1.83-27.33-2.58-4.15-8.48-6.83-9.83-11.66,2.34-2.06,9.63,5.63,10.99,7.5,5.56,7.64,6.42,16.1,2.78,24.77-.42,1.01-4.24,8.49-5.77,6.72Z"/>
    <path d="M51.66,573.14v27h-4v-19c-.88-.38-8.26,2.68-6.99-.49,3.19-2.56,6.81-7.34,10.99-7.51Z"/>
    <path d="M28.66,551.15c-1.39,5.23-6.83,8.01-8.69,12.79-2.17,5.58.14,9.85-.32,15.72-.54,6.9-4.48-2-4.91-5.11-1.61-11.63,3.61-18.92,13.91-23.4Z"/>
    <path d="M37.65,632.13c-10.03-2.15-18.79-14-13.49-23.97,2.8,3.59.65,7.55,3.08,11.9s10.04,6.07,10.41,12.08Z"/>
    <path d="M95.65,612.14c.26,4-4.73,15.97-9.44,14.98s.45-3.5.92-3.96c3.47-3.39,4.92-5.82,4.55-11.02h3.97Z"/>
    <path d="M44.65,590.14c.02,8.02-8.76,8.51-15,7.99v-2.99c6.32,1.17,9.81-2.93,15-5Z"/>
  </g>
  <g id="FDI_28" data-name="FDI 28">
    <path class="cls-1" d="M675.48,537.37c25.99-.19,46.49,21.12,44.22,47.31-.53,6.05-2.24,15.32-3.16,21.83-7.06,49.93-98.23,46.64-103.79,4.04-.75-5.74-2.17-20.38-2.17-25.92-.01-32.46,37.65-47.07,64.91-47.27ZM682.65,550.14c-.66-.69-9.46,5.64-10.04,6.45-2.23,3.06-1.38,10.19-7.46,11.61-3.46.03-3.47-7.17-3.52-9.56-.03-1.68,2.29-6.1-2.5-3.53-2.21,7.24,1.58,12.92,4.55,19.02,2.68.78,1.91-1.74,3.4-3.04,7.76-6.79,4.28-3.87,8.12-11.92,1.35-2.84,7.92-4.27,7.46-9.03ZM706.63,582.13c1.29-1.05,1.37-17.47.58-20.05-.72-2.32-6.62-7.48-8.75-9.25-4.16-3.48-5.15-1.09-2.86,2.6.87,1.4,5.11,3.19,6.54,4.71,5.44,5.83.92,14.97,1.51,22h2.97ZM644.65,553.14c-4.25-.69-5.42,3.85-7.56,5.93-1.09,1.07-2.86,1.07-3.91,2.09-7.03,6.82-5.29,25.45,1.98,31.96,2.06.43,1.69-.98,1.44-2.43-1.1-6.2-6.07-9.17-4.72-17.81,1.2-7.7,10.13-12.58,12.76-19.74ZM647.66,600.14h17v-4s-11-1.01-11-1.01c-1.64-1.8,7.13-5.58,8.42-7.07,10.79-12.48-12.11-22.47-14.38-6.98l3.95,1.06c-.76-6.43,9.68-6.13,8.88-.73-.88,5.93-15.43,9.93-12.87,18.72ZM675.42,573.32c-2.55.3-5.65,2.19-6.34,4.78-.83,3.12,2.14,5.1,2.22,6.56.1,1.86-3.77,4.1-3.46,7.72.71,8.2,13.67,11.27,16.79,3.22,2.54-6.55-1.89-7.05-1.94-9.96-.03-1.78,2-3.09,1.79-5.75-.36-4.63-4.63-7.1-9.05-6.57ZM672.65,629.14c1.2-8.63-9.86-5.77-14.08-9.41-2.84-2.45-2.98-8.65-6.54-11.46-3.2-2.53-16.58-7.5-20.82-8.25-1.2-.21-2.85-1.32-3.54.64-.59,1.66,3.4,2.76,4.64,3.33,4.92,2.27,16.05,4.7,19.22,8.78,6.46,8.32,2.08,16.2,1.14,25.36h3.99c-.43-2.38,1.44-13.49,3.57-13.96l12.42,4.97ZM701.65,609.13h-3.99c.24,3.75-.06,7.32-1.8,10.7-2.77,5.38-9.89,6.39-10.19,12.3,9.64-2.7,17.17-12.81,15.99-23ZM638.66,623.15c-9.51.87-3.22-11.19-11-11,1.06,6.51,2.43,12.87,9.51,14.96l1.49-3.96Z"/>
    <path d="M672.65,629.14l-12.42-4.97c-2.13.47-4.01,11.58-3.57,13.97h-3.99c.94-9.17,5.32-17.05-1.14-25.37-3.17-4.09-14.29-6.51-19.22-8.78-1.24-.57-5.23-1.67-4.64-3.33.69-1.96,2.34-.85,3.54-.64,4.24.76,17.62,5.72,20.82,8.25,3.56,2.81,3.7,9.01,6.54,11.46,4.22,3.64,15.28.78,14.08,9.41Z"/>
    <path d="M647.66,600.14c-2.56-8.79,11.99-12.8,12.87-18.72.8-5.4-9.64-5.71-8.88.73l-3.95-1.06c2.27-15.49,25.17-5.5,14.38,6.98-1.29,1.49-10.06,5.27-8.42,7.07l11,1.01v4h-17Z"/>
    <path d="M675.42,573.32c4.42-.52,8.7,1.94,9.05,6.57.2,2.66-1.82,3.97-1.79,5.75.05,2.91,4.48,3.41,1.94,9.96-3.12,8.05-16.08,4.98-16.79-3.22-.31-3.62,3.56-5.86,3.46-7.72-.08-1.46-3.05-3.44-2.22-6.56.69-2.59,3.79-4.48,6.34-4.78ZM680.66,577.13c-4.42-.19-9.75-.92-7.53,5.02,2.18,2.17,4.75,2.29,7.38.83l.14-5.85ZM681.43,588.38c-4.41-4.95-14.1,1.84-7.74,8.23,4.69,4.71,11-4.57,7.74-8.23Z"/>
    <path d="M644.65,553.14c-2.63,7.16-11.56,12.04-12.76,19.74-1.35,8.64,3.62,11.61,4.72,17.81.26,1.46.63,2.86-1.44,2.43-7.27-6.51-9.01-25.14-1.98-31.96,1.05-1.02,2.81-1.02,3.91-2.09,2.14-2.09,3.31-6.62,7.56-5.93Z"/>
    <path d="M682.65,550.14c.46,4.76-6.1,6.19-7.46,9.03-3.84,8.05-.37,5.13-8.12,11.92-1.48,1.3-.71,3.82-3.4,3.04-2.97-6.1-6.76-11.78-4.55-19.02,4.79-2.57,2.47,1.85,2.5,3.53.05,2.39.06,9.59,3.52,9.56,6.08-1.41,5.23-8.54,7.46-11.61.58-.8,9.38-7.14,10.04-6.45Z"/>
    <path d="M706.63,582.13h-2.97c-.59-7.02,3.93-16.16-1.51-21.99-1.43-1.53-5.67-3.31-6.54-4.71-2.29-3.69-1.3-6.08,2.86-2.6,2.12,1.78,8.03,6.93,8.75,9.25.8,2.58.71,19-.58,20.05Z"/>
    <path d="M701.65,609.13c1.18,10.18-6.34,20.3-15.99,23,.3-5.9,7.43-6.91,10.19-12.3,1.74-3.38,2.05-6.95,1.8-10.71h3.99Z"/>
    <path d="M638.66,623.15l-1.49,3.96c-7.08-2.09-8.45-8.45-9.51-14.96,7.78-.18,1.49,11.88,11,11Z"/>
  </g>
  <g id="FDI_21" data-name="FDI 21">
    <path class="cls-1" d="M370.37,1.35c6.63-1.48,28.94-.65,36.83-.25,12.84.64,26.53,2.71,38.44,7.56,13.03,5.31,22.11,10.74,16.75,26.72-.47,1.39-2.04,2.2-2.47,3.53-8.13,24.86-26.71,85.76-63.59,63.06-21.81-13.43-31.39-55.35-32.66-79.33-.36-6.78-1.84-19.36,6.7-21.28ZM448.65,29.13c-3.31-17.64-23.82-14.97-37.54-15.04-2.62-.01-5.1,1.15-7.95,1.13-7.18-.05-16.52-4.15-23.42-.51-3.22,1.7-9.67,12.4-6.13,14.98l3.05.45c-.6-4.69,2.52-12.95,7.74-13.85,2.24-.39,4.4.87,6.72.9,11.34.14,37.95-1.77,47.25,2.74,4.65,2.26,5.41,8.19,10.28,9.21ZM390.66,58.14h19v-3c-2.78-.45-11.8,1.23-13-1.51,9.51-3.21,19.75-20.52,3.5-20.59-3.94-.02-11.37,5.13-8.5,8.09,2.04,2.11,4.43-3.41,5.65-3.84,1.75-.61,5.53-.6,6.23,1.48,2.43,7.24-13.6,11.27-12.89,19.36ZM423.66,33.14c-2.89-.99-13.26,6.5-10.99,9l5.99-2v18h5v-25ZM443.65,43.14c-2.18-2.07-15.17,14.68-18.03,16.46-5.28,3.28-9.56.53-11.69,8.31-1.38,5.05-1.32,11.03-1.27,16.24h2.99c-1.49-15.74,4.25-21.15,17.93-26.58l10.07-14.42ZM397.01,69.81c-1.52-2.65-2.97-8.16-5.85-8.68-1.55-.19-1.74-.06-1.51,1.5.85,5.96,9.35,13.83,10.9,23.12.56,3.39-1.59,9.52,2.59,10.39,3.17-.67.35-10.51-.16-12.82-1.52-6.84-3.02-8.35-5.98-13.5Z"/>
    <path d="M448.65,29.13c-4.87-1.01-5.64-6.95-10.28-9.21-9.3-4.52-35.91-2.6-47.25-2.74-2.32-.03-4.48-1.28-6.72-.9-5.22.9-8.34,9.17-7.74,13.85l-3.05-.45c-3.54-2.58,2.91-13.28,6.13-14.98,6.9-3.64,16.24.46,23.42.51,2.86.02,5.34-1.14,7.95-1.13,13.71.06,34.22-2.6,37.54,15.04Z"/>
    <path d="M390.66,58.14c-.71-8.09,15.32-12.12,12.89-19.36-.7-2.08-4.49-2.09-6.23-1.48-1.22.43-3.61,5.95-5.65,3.84-2.87-2.96,4.56-8.11,8.5-8.09,16.25.07,6.01,17.38-3.5,20.59,1.2,2.74,10.22,1.06,13,1.51v3h-19.01Z"/>
    <path d="M443.65,43.14l-10.07,14.42c-13.69,5.42-19.43,10.83-17.93,26.58h-2.99c-.05-5.21-.11-11.19,1.27-16.24,2.13-7.78,6.41-5.03,11.69-8.31,2.86-1.77,15.85-18.53,18.03-16.46Z"/>
    <path d="M423.66,33.14v25h-5v-18l-5.99,2c-2.26-2.49,8.1-9.98,10.99-9Z"/>
    <path d="M397.01,69.81c2.96,5.15,4.45,6.66,5.98,13.5.51,2.31,3.33,12.15.16,12.82-4.18-.86-2.03-7-2.59-10.39-1.55-9.29-10.05-17.15-10.9-23.12-.22-1.56-.04-1.7,1.51-1.5,2.87.52,4.32,6.03,5.85,8.68Z"/>
  </g>
  <g id="FDI_11" data-name="FDI 11">
    <path class="cls-1" d="M312.45,1.43c6.74-.41,38.57-1.42,42.52.89,4.71,2.77,3.99,16.23,3.73,21.35-1.35,26.98-17.44,93.36-56.07,81.99-17.97-5.29-33.59-45.45-39.73-62.27-2.97-8.14-6.57-21,1.26-27.26,11.93-9.53,33.38-13.8,48.29-14.71ZM274.66,29.13c1.55,1.75,7.38-7.1,8.48-8.01,9.05-7.5,31.45-2.12,43.05-2.95,5.48-.39,12.96-4.28,17.51.41,3.06,3.15,2,9.45,5.45,12.53,4.16.02-1.34-13.61-3.53-15.45-5.11-4.3-12.99-1.54-18.43-1.49-10.32.1-22-.86-32.08-.08-8.41.66-20.46,5.19-20.46,15.03ZM308.66,33.14c-5.24-1.12-6.01,4.89-10.83,5.15l-.16,3.85,6.99-2v18h4v-25ZM325.66,33.14c-2.79-.43-13.22,6.48-10.99,9l6.99-2v18h4v-25ZM305.3,62.5c-2.81-2.88-8.55-5.51-12.11-8.39-2.85-2.3-8.66-9.24-10.86-10.16-1.16-.49-2.62-.77-2.65.68-.01.74,6.89,9.84,8.07,10.91,4.38,3.99,12.03,5.99,15.75,10.25,4.11,4.71,3.78,12.32,4.16,18.35h2.99c.31-7.32.05-16.12-5.36-21.65ZM338.65,53.14c-2.3-.33-2.56-.04-3.85,1.64-3.7,4.81-11.61,18.7-13.63,24.37-1.87,5.24-3.62,11.59-1.43,16.92l2.91.07c-1.89-17,11.66-28.03,16-43Z"/>
    <path d="M274.66,29.13c0-9.84,12.05-14.37,20.46-15.03,10.07-.79,21.76.18,32.08.08,5.44-.05,13.33-2.82,18.43,1.49,2.19,1.84,7.69,15.47,3.53,15.45-3.45-3.08-2.39-9.38-5.45-12.53-4.56-4.69-12.03-.81-17.51-.41-11.6.83-33.99-4.55-43.05,2.95-1.1.91-6.93,9.76-8.48,8.01Z"/>
    <path d="M305.3,62.5c5.4,5.53,5.67,14.32,5.36,21.65h-2.99c-.38-6.03-.05-13.64-4.16-18.35-3.72-4.26-11.37-6.26-15.75-10.25-1.18-1.07-8.08-10.17-8.07-10.91.03-1.45,1.48-1.17,2.65-.68,2.19.92,8.01,7.86,10.86,10.16,3.56,2.87,9.3,5.51,12.11,8.39Z"/>
    <path d="M338.65,53.14c-4.34,14.98-17.89,26-16,43l-2.91-.07c-2.19-5.33-.44-11.68,1.43-16.92,2.03-5.66,9.94-19.56,13.63-24.37,1.29-1.68,1.54-1.97,3.85-1.64Z"/>
    <path d="M308.66,33.14v25h-4v-18l-6.99,2,.16-3.85c4.82-.26,5.6-6.27,10.83-5.15Z"/>
    <path d="M325.66,33.14v25h-4v-18l-6.99,2c-2.22-2.52,8.2-9.43,10.99-9Z"/>
  </g>
  <g id="FDI_13" data-name="FDI 13">
    <path class="cls-1" d="M189.03,80.78c5.67,8.29,5.36,10.69,9.15,19.34,7.41,16.91,14.91,26.47,11.36,46.4-7.05,39.56-53.78,20.56-75.21,4.45-3.49-2.62-19.86-17.01-21.15-19.85-3.69-8.12,6.52-40.57,11.65-48.31,5.54-8.36,34.85-21.55,44.24-20.65,7.83.75,15.91,12.7,19.96,18.62ZM131.56,123.05c6.4-16.41,6.12-33.45,25.1-40.41,3.41-1.25,7.95-.42,10.5-3.51,1.68-3.77-7.88-.64-9.27-.26-5.73,1.59-11.84,3.66-15.65,8.35-8.38,10.31-9.87,23.01-13.6,35.4l2.92.43ZM155.66,104.14l-10.99,8.51c-1.3,3.23,7.06.2,7.99.49v18h3v-27ZM175.4,125.89c-1.12,1.08-4.67,1.66-6.11,1.16-4.77-10.59-8.57-.43-2.57,3.53,6.5,4.29,15.62-1.8,13.76-9.72-.43-1.82-2.39-3.23-2.58-4.38-.38-2.38,2.69-4.14,1.04-8.05-3.13-7.39-15.84-4.85-15.27,3.71,4.44,1.45,4.6-2.97,6.65-3.85,3.94-1.7,4.53,2.5,4.25,5.77-3.14.22-5.4,1.61-4.91,5.07,2.49-.04,6.73,1.43,6.82,4.35-.25.79-.49,1.85-1.07,2.41ZM188.66,113.14c-1.95-.29-2.67.76-2.98,2.52-1.43,7.92-.41,21.77,4.55,28.42,1,1.34,5.01,5.32,4.45,1.56-.44-2.94-6.02-10.9-6.02-12v-20.5ZM174.68,154.13c5.07-.3,2.06-4.33-.12-6.39-7.48-7.07-20.5-6.13-29.9-9.1-3.14-.99-5.06-2.57-7.99-3.5l-1.02,3.99c3.35-1.02,4.75,2.02,6.73,2.78,10.62,4.11,26.76,0,32.29,12.22Z"/>
    <path d="M175.4,125.89c.58-.56.82-1.63,1.07-2.41-.09-2.92-4.32-4.39-6.82-4.35-.48-3.46,1.77-4.85,4.91-5.07.28-3.27-.32-7.47-4.25-5.77-2.05.88-2.21,5.31-6.65,3.85-.58-8.56,12.14-11.1,15.27-3.71,1.66,3.91-1.42,5.68-1.04,8.05.19,1.16,2.15,2.56,2.58,4.38,1.86,7.92-7.26,14-13.76,9.72-6-3.95-2.19-14.12,2.57-3.53,1.45.5,4.99-.08,6.11-1.16Z"/>
    <path d="M131.56,123.05l-2.92-.43c3.73-12.39,5.23-25.08,13.6-35.4,3.81-4.69,9.92-6.76,15.65-8.35,1.39-.39,10.95-3.52,9.27.26-2.55,3.09-7.1,2.26-10.5,3.51-18.98,6.96-18.7,24-25.1,40.41Z"/>
    <path d="M174.68,154.13c-5.54-12.21-21.68-8.11-32.29-12.22-1.98-.77-3.38-3.8-6.73-2.78l1.02-3.99c2.93.93,4.84,2.51,7.99,3.5,9.4,2.96,22.42,2.03,29.9,9.1,2.18,2.06,5.19,6.09.12,6.39Z"/>
    <path d="M155.66,104.14v27h-3v-18c-.93-.29-9.29,2.75-7.99-.49l10.99-8.51Z"/>
    <path d="M188.66,113.14v20.5c0,1.09,5.58,9.06,6.02,12,.56,3.76-3.45-.22-4.45-1.56-4.96-6.65-5.98-20.5-4.55-28.42.32-1.75,1.04-2.8,2.98-2.52Z"/>
  </g>
  <g id="FDI_23" data-name="FDI 23">
    <path class="cls-1" d="M553.39,63.38c6.25-1.01,17.62,3.32,23.78,5.74,11.19,4.4,16.74,6.41,22.36,17.64,5.17,10.33,14.62,37.57,7.66,47.42-5.39,7.64-21.54,19.43-29.87,24.13-18.49,10.44-52.66,21.93-62.45-4.9-5.94-16.3-2.64-30.39,3.92-45.63,5.62-13.07,19.37-41.94,34.6-44.4ZM595.65,123.13l-10.5-29.99c-5.23-11.69-18.78-15.08-30.49-15-.46,2.69.48,1.73,2.17,2.27,11.25,3.55,22.06,4.36,26.86,17.19,2.97,7.96,2.76,23.07,11.96,25.53ZM541.66,133.14h14.5c.94,0,3.2-3.55,2.5-4.99h-10.99c.78-4.03,6.02-4.56,8.46-8.04,10.13-14.51-12.98-22.55-14.46-5.97,4.13.68,4.49-4.09,8.49-4.1,1.91,0,4.55,1.33,4.35,3.43-.51,5.4-16.26,12.18-12.85,19.67ZM560.66,124.15c.85,7.48,10.17,12.01,15.57,6.07,5.13-5.63.05-8.7-.32-12.73-.19-2.06,1.75-3.69,1.33-6.4-1.3-8.43-14.47-7.72-15.6.55-.59,4.35,5.13-1.12,5.72-1.3,1.59-.5,5.9-.53,6.29,1.32.71,3.31-9.27,3.59-5.31,8.47,9.62-.8,6.57,10.08-.02,7.92-1.75-.58-2.64-5.85-7.66-3.9ZM534.66,113.14v20.5c0,1.89-7.61,13.04-7,13.49,5.31,1.26,7.88-6.49,8.89-10.6,1.48-6.02,1.89-15.12.25-21.07-.47-1.72.73-2.77-2.14-2.32ZM587.66,136.15c-5.3-.57-10.22,3.54-14.76,4.73-9.04,2.38-26.74-.12-27.24,13.25,5.39-.99,8.69-6.38,14.18-8.31,9.2-3.23,22.06.43,27.81-9.68Z"/>
    <path d="M541.66,133.14c-3.41-7.5,12.35-14.27,12.85-19.67.2-2.1-2.45-3.43-4.35-3.43-4,0-4.36,4.77-8.49,4.1,1.47-16.59,24.59-8.55,14.46,5.97-2.43,3.49-7.68,4.01-8.46,8.03h10.99c.71,1.46-1.55,5.01-2.5,5.01h-14.5Z"/>
    <path d="M560.66,124.15c5.02-1.95,5.91,3.32,7.66,3.9,6.59,2.16,9.64-8.72.02-7.92-3.97-4.87,6.02-5.16,5.31-8.47-.4-1.85-4.71-1.82-6.29-1.32-.59.18-6.31,5.65-5.72,1.3,1.13-8.27,14.31-8.98,15.6-.55.42,2.71-1.52,4.34-1.33,6.4.37,4.04,5.45,7.1.32,12.73-5.41,5.94-14.73,1.41-15.57-6.07Z"/>
    <path d="M595.65,123.13c-9.2-2.46-8.98-17.57-11.96-25.53-4.8-12.83-15.61-13.64-26.86-17.19-1.69-.53-2.63.42-2.17-2.27,11.71-.09,25.26,3.31,30.49,15l10.5,29.99Z"/>
    <path d="M587.66,136.15c-5.76,10.1-18.61,6.44-27.81,9.68-5.49,1.93-8.79,7.32-14.18,8.31.5-13.37,18.2-10.88,27.24-13.25,4.54-1.19,9.46-5.3,14.76-4.73Z"/>
    <path d="M534.66,113.14c2.87-.46,1.66.6,2.14,2.32,1.65,5.95,1.23,15.05-.25,21.07-1.01,4.12-3.58,11.86-8.89,10.6-.61-.45,7-11.6,7-13.49v-20.5Z"/>
  </g>
  <g id="FDI_45" data-name="FDI 45">
    <path class="cls-1" d="M162.85,1062.95c.7.88,3.65,1.86,5.26,4.23,6.46,9.52,4.32,25.51-2.45,34.45-7.81,10.31-37.86,27.53-50.64,28.43-8.46.6-34.76-12.98-39.8-20-16.47-22.97,1.13-52.6,23.45-63.42,18.13-8.79,46.96-16.9,60.81,2.16,5.29,7.27,2.89,13.55,3.36,14.14ZM152.38,1050.41c-.99-1.5-10.54-5.71-12.71-7.28.49,7.72,10.67,6.19,12.5,13.99,2.87.93.42-6.4.21-6.72ZM123.64,1044.14c-5.82.08.23,8.2.07,10.41-5,2.79-8,6.54-7.05,12.58,6.57-2.03,1.41-9.35,10.51-9.09,8.33.24,3.75,8.12,10.48,8.09-.01-10.47-13.55-11.32-14.01-21.99ZM154.66,1064.15c-4.01,1.34-10.51,4.33-13.92,6.57-1.25.82-2.4,1.69-2.07,3.42,7.43,1.02,11.86-4.97,16-9.98ZM97.65,1067.14c-4.18-1.14-5.32,5.63-5.74,8.75-.79,5.92-.16,12.55-.05,18.54.74,2.52,7.03,5.61,9.18,7.82,4.02,4.1,5.88,10.35,10.6,13.89,1.38-3.81-3.56-11.55-6.14-14.35-3.19-3.46-7.97-4.27-9.82-9.18-2.71-7.21,2.04-17.8,1.96-25.47ZM113.66,1068.14c-1.77-.27-2.19-.04-3.46,1.04-1.67,1.43-11.82,17.02-11.54,18.43.51,2.55,8.81,1.25,11,1.53v6.01s3.99,0,3.99,0v-6.01s4.01,0,4.01,0v-3.99s-4.01,0-4.01,0v-17ZM125.65,1074.14c17.24.58,11.82-8.87-2.01-5.52-2.04,1.21-3.88,12.42-2.52,14.55,2.1,3.29,3.15-1.78,4.23-2.06,10.43-2.69,9.15,14.61-.13,8.91-1.7-1.04-1.12-3.9-4.57-2.88-1.45,7,6.34,10.67,11.9,7.41,9.52-5.59,4.18-19.98-6.91-17.42v-2.99ZM165.66,1074.14c-8.2,1.69-1.73,10.66-1.93,15.48-.16,3.6-3.35,5.86-3.06,9.51,11.4-3.82,2.54-17,4.99-24.99ZM136.66,1096.12c5-.55,7.3,11.95,9.5,12,5.6.13-5.86-15.55-5.51-16.98l-3.99,4.98ZM134.66,1097.15c-4.09-3.08-8.2,10.99-6.99,13.99,4.68-1.39,4.44-10.27,6.99-13.99Z"/>
    <path d="M125.65,1074.14v2.99c11.1-2.56,16.43,11.83,6.91,17.42-5.56,3.26-13.35-.41-11.9-7.41,3.45-1.02,2.87,1.84,4.57,2.88,9.28,5.7,10.55-11.59.13-8.91-1.08.28-2.13,5.34-4.23,2.06-1.36-2.13.48-13.34,2.52-14.55,13.82-3.35,19.25,6.1,2.01,5.52Z"/>
    <path d="M97.65,1067.14c.07,7.67-4.67,18.26-1.96,25.47,1.84,4.91,6.63,5.72,9.82,9.18,2.58,2.8,7.52,10.54,6.14,14.35-4.72-3.54-6.58-9.79-10.6-13.89-2.16-2.2-8.44-5.29-9.18-7.82-.11-5.99-.74-12.62.05-18.54.42-3.12,1.56-9.89,5.74-8.75Z"/>
    <path d="M113.66,1068.14v17h4.01s0,4,0,4h-4.02s0,6.01,0,6.01h-3.99s0-6.01,0-6.01c-2.19-.27-10.5,1.03-11-1.53-.28-1.41,9.87-17,11.54-18.43,1.27-1.09,1.68-1.31,3.46-1.04ZM110.65,1075.14c-2.3-.57-1.64.42-2.29,1.26-2.23,2.89-3.66,6.69-5.71,9.73l8,.02v-11Z"/>
    <path d="M123.64,1044.14c.46,10.67,14,11.52,14.01,21.99-6.73.03-2.15-7.85-10.48-8.09-9.1-.26-3.94,7.06-10.51,9.09-.95-6.04,2.05-9.79,7.05-12.58.16-2.21-5.89-10.33-.07-10.41Z"/>
    <path d="M165.66,1074.14c-2.45,7.99,6.41,21.16-4.99,24.99-.29-3.65,2.91-5.91,3.06-9.51.21-4.82-6.27-13.79,1.93-15.48Z"/>
    <path d="M136.66,1096.12l3.99-4.98c-.35,1.43,11.11,17.1,5.51,16.98-2.2-.05-4.5-12.55-9.5-12Z"/>
    <path d="M152.38,1050.41c.21.32,2.66,7.65-.21,6.72-1.83-7.8-12.02-6.27-12.5-13.99,2.18,1.56,11.73,5.77,12.71,7.28Z"/>
    <path d="M154.66,1064.15c-4.14,5.02-8.57,11-16,9.98-.32-1.73.83-2.6,2.07-3.42,3.41-2.24,9.91-5.23,13.92-6.57Z"/>
    <path d="M134.66,1097.15c-2.55,3.71-2.31,12.59-6.99,13.99-1.21-2.99,2.91-17.07,6.99-13.99Z"/>
  </g>
  <g id="FDI_35" data-name="FDI 35">
    <path class="cls-1" d="M559.66,1063.11c-2.95-5.71.59-11.9,4.17-16.3,18.78-23.13,72.42-.05,84,22.66,4.8,9.41,6.14,28.02,1.03,37.38-2.99,5.48-26.07,20.25-32.18,21.82-14.96,3.84-50.13-13.82-59.54-25.52-7.8-9.69-11.52-34.94,2.52-40.04ZM583.65,1044.14c-8.02.06-14.49,5.03-15.99,12.99,5.14,1.18,3.77-2.19,6.44-5.05,1.02-1.1,11.39-6.33,9.55-7.94ZM600.65,1044.14c-4.52.3-2.88,7.3-5.5,9.99-1.91,1.96-5.8,1.1-7.99,4.01-.92,1.23-3.06,8.38-2.5,8.99,6.12-1.22,2.67-8.8,10.53-9.07,6.69-.23,5.74,6.99,11.46,8.07.29-5.46-2.51-10.1-7.97-11.06l1.97-10.93ZM582.66,1070.15c-.17-.2-3.43-.52-5.06-1.45-3.37-1.91-5.44-5.34-9.94-4.55,3.79,4.54,7.2,9.42,13.55,9.75,1.43-.22,1.93-3.21,1.46-3.75ZM628.65,1067.14c-5.73.59-1.31,10.46-1.01,14.51.23,3.01.46,8.85-.42,11.54-1.07,3.26-4.82,3.46-7.11,5.89-1.55,1.64-2.06,3.88-3.45,5.55-2.99,3.6-8.54,6.04-5.99,11.5,2.58.6,1.74-.78,2.57-1.89,5.45-7.3,11.42-13.83,17.22-20.81.71-8.88.3-17.68-1.81-26.3ZM583.66,1087.14c-1.05,13.09,18.9,10.02,16.99-1.43-.35-2.11-2.54-3.48-2.82-5.27-.33-2.14,1.3-4.4.64-7.57-1.42-6.81-13.73-6.53-14.69.63,4.2,5.94,3.57.42,5.48-.23,1.44-.49,5-.48,5.95.83,1.46,5.99-5.81,2.47-6.58,7.52-.49,3.25,4.94.09,6.57,2.44,1.82,5.15-.24,8.51-5.86,7.09-1.23-.31-2.05-5.39-5.7-4.02ZM608.65,1074.14c17.24.58,11.81-8.86-2.01-5.52-2.23,1.33-3.98,12.25-2.51,14.55,2.1,3.29,3.16-1.78,4.23-2.06,9.84-2.54,9.4,13.16.56,9.27-.93-.41-5.99-6.24-6.23-2.76-.26,3.78,4.17,8.25,8.29,8.19,13.66-.2,12.07-21.73-2.33-18.68v-2.99ZM560.28,1085.79c1.1-3.17,1.75-6.63,1.24-10.01l-4.86-1.65c1.5,8.26-6.15,22.98,5.99,25,.07-3.81-3.37-5.84-3.96-9.62s1.43-3.27,1.58-3.72ZM583.65,1094.14c-4.76-1.41-9.89,10.7-7.99,12.99,3.17.2,3.2-3.77,4.53-5.96s4.56-3.08,3.46-7.03ZM595.65,1111.13c-.16-4.98-.11-14.24-6.99-12.99.24,1.3,4.99,15.41,6.99,12.99Z"/>
    <path d="M608.65,1074.14v2.99c14.4-3.06,15.99,18.48,2.33,18.68-4.12.06-8.55-4.41-8.29-8.19.24-3.48,5.3,2.35,6.23,2.76,8.84,3.9,9.28-11.8-.56-9.27-1.07.28-2.13,5.35-4.23,2.06-1.47-2.31.29-13.22,2.51-14.55,13.83-3.34,19.25,6.1,2.01,5.52Z"/>
    <path d="M583.66,1087.14c3.65-1.37,4.47,3.7,5.7,4.02,5.62,1.43,7.68-1.94,5.86-7.09-1.63-2.35-7.07.8-6.57-2.44.76-5.05,8.04-1.53,6.58-7.52-.95-1.32-4.51-1.32-5.95-.83-1.91.65-1.28,6.17-5.48.23.95-7.16,13.27-7.44,14.69-.63.66,3.17-.97,5.43-.64,7.57.28,1.79,2.47,3.16,2.82,5.27,1.91,11.45-18.04,14.52-16.99,1.43Z"/>
    <path d="M628.65,1067.14c2.11,8.62,2.52,17.42,1.81,26.3-5.8,6.98-11.77,13.51-17.22,20.81-.83,1.11.02,2.49-2.57,1.89-2.55-5.46,3-7.89,5.99-11.5,1.39-1.67,1.89-3.91,3.45-5.55,2.29-2.42,6.04-2.62,7.11-5.89.89-2.69.65-8.54.42-11.54-.31-4.05-4.72-13.92,1.01-14.51Z"/>
    <path d="M600.65,1044.14l-1.97,10.93c5.47.96,8.27,5.6,7.97,11.06-5.72-1.08-4.77-8.3-11.46-8.07-7.86.27-4.41,7.85-10.53,9.07-.57-.61,1.58-7.76,2.5-8.99,2.19-2.91,6.07-2.05,7.99-4.01,2.63-2.69.99-9.69,5.5-9.99Z"/>
    <path d="M560.28,1085.79c-.16.45-2.19-.19-1.58,3.72s4.03,5.81,3.96,9.62c-12.14-2.02-4.49-16.74-5.99-25l4.86,1.65c.51,3.38-.14,6.84-1.24,10.01Z"/>
    <path d="M583.65,1044.14c1.85,1.61-8.52,6.84-9.55,7.94-2.67,2.86-1.3,6.23-6.44,5.05,1.5-7.96,7.97-12.93,15.99-12.99Z"/>
    <path d="M582.66,1070.15c.47.54-.03,3.53-1.46,3.75-6.35-.33-9.76-5.21-13.55-9.75,4.5-.79,6.56,2.65,9.94,4.55,1.64.93,4.89,1.25,5.06,1.45Z"/>
    <path d="M583.65,1094.14c1.1,3.95-2.12,4.81-3.46,7.03s-1.35,6.16-4.53,5.96c-1.9-2.29,3.23-14.4,7.99-12.99Z"/>
    <path d="M595.65,1111.13c-2,2.42-6.75-11.69-6.99-12.99,6.88-1.25,6.83,8.01,6.99,12.99Z"/>
  </g>
  <g id="FDI_15" data-name="FDI 15">
    <path class="cls-1" d="M64.37,219.35c8.17-1.84,25.64,2.87,33.83,5.75,5.53,1.95,17.18,6.38,22.14,8.86,12.58,6.28,22.11,25.66,17.81,39.17-3.21,10.09-16.41,23.72-26.84,26.16-11.82,2.77-41.18-1.36-53.09-5.2-13.01-4.2-15.42-15.65-18.27-27.73-3.21-13.64-4.52-17.2,5.21-28.23,2.07-2.35,4.75-3.6,6.5-5.5,3.35-3.64,7.52-12.11,12.72-13.28ZM94.65,246.13c1.49-1.62-4.21-7.85-5.47-9.02-1.19-1.11-11.85-8.77-12.52-7.97-2.95,3.5,5.25,6.2,6.93,7.56,1.42,1.15,9.91,10.68,11.06,9.43ZM61.66,233.15c-6.15-.49-8.22,7.76-10.98,12.25-.61,1-2.43,1.09-2.85,2.37-2.11,6.35,5.06,19.14,3.84,26.38l3.01-.6c1.41-7.4-3.93-15.68-2.81-22.65.52-3.24,10.6-17.13,9.79-17.74ZM107.65,234.14l-4.99,1.01c4.09,1.51-2.59,10.85,1.5,10.97,3.61.1,3-9.37,3.5-11.97ZM79.66,275.14v-27l-10.9,7.48.9,2.52,6-2v17.5c0,1.06,2.84,1.9,4,1.5ZM103.61,249.2l-13.85-.96-2.1,14.89c.95,1.01,16.3-7.73,11.07,7.34-5.12,5.31-7.21-5.2-11.08-2.84-3.32,2.02,2.76,7.4,6.52,7.57,15.07.68,12.33-22.77-2-18.04l-.53-2.52,12.01-2.51-.05-2.92ZM119.67,281.14c9.03-3.28,13.25-24.45,4.48-27.99-3.27-1.32.3,6.54.43,7.57,1.08,8.93-2.92,12.5-4.9,20.42ZM75.65,276.14c-1.46-1.28-12.53,5.11-10.99,8.99,1.76,1.78,12.59-7.59,10.99-8.99ZM95.65,277.14l-3.83.17c-1.64,6.25-8.24,9.79-7.16,16.83h2.99c-1.58-7.74,9.2-9.05,8-17Z"/>
    <path d="M103.61,249.2l.05,2.92-12.01,2.51.53,2.52c14.32-4.73,17.07,18.73,2,18.04-3.76-.17-9.84-5.54-6.52-7.57,3.87-2.36,5.96,8.14,11.08,2.84,5.22-15.07-10.12-6.33-11.07-7.34l2.1-14.89,13.85.96Z"/>
    <path d="M61.66,233.15c.8.62-9.27,14.51-9.79,17.74-1.12,6.98,4.21,15.26,2.81,22.65l-3.01.6c1.22-7.24-5.95-20.03-3.84-26.38.43-1.28,2.24-1.37,2.85-2.37,2.76-4.49,4.83-12.74,10.98-12.25Z"/>
    <path d="M79.66,275.14c-1.16.4-4-.44-4-1.5v-17.5l-6,2-.9-2.52,10.9-7.48v27Z"/>
    <path d="M119.67,281.14c1.99-7.92,5.99-11.49,4.9-20.42-.13-1.03-3.7-8.89-.43-7.57,8.78,3.54,4.55,24.71-4.48,27.99Z"/>
    <path d="M94.65,246.13c-1.15,1.25-9.64-8.27-11.06-9.43-1.68-1.36-9.87-4.06-6.93-7.56.67-.8,11.33,6.86,12.52,7.97,1.26,1.18,6.96,7.4,5.47,9.02Z"/>
    <path d="M95.65,277.14c1.2,7.94-9.57,9.26-8,17h-2.99c-1.09-7.05,5.52-10.58,7.16-16.84l3.83-.17Z"/>
    <path d="M75.65,276.14c1.6,1.39-9.23,10.77-10.99,8.99-1.54-3.88,9.53-10.27,10.99-8.99Z"/>
    <path d="M107.65,234.14c-.49,2.61.11,12.08-3.5,11.97-4.09-.12,2.6-9.46-1.5-10.97l4.99-1.01Z"/>
  </g>
  <g id="FDI_25" data-name="FDI 25">
    <path class="cls-1" d="M645.43,219.41c4.15-.47,10.97-1.04,14.6.85,5.36,8.23,22.51,19.42,24.4,28.6,1.99,9.67-4.76,35.25-12.81,41.74-9.76,7.87-54.34,12.08-65.65,6.72-22.72-10.77-29.89-38.96-11.31-57.68,8.83-8.9,38.22-18.82,50.77-20.23ZM645.35,229.31c-3.14.51-15.41,10.61-16.29,13.76-.5,1.8-.37,1.88,1.09,3.05,1.2-4.19,18.42-14.27,18.48-15.48.06-1.14-2.22-1.5-3.28-1.33ZM668.66,273.13c4.05,4.23,5.89-14.01,5.98-15.5.55-9.64-2.87-21.57-12.98-24.48,1.62,6.02,9.02,10.74,9.93,16.55,1.28,8.11-2.92,15.42-2.93,23.43ZM619.66,234.14h-3s1,12.99,1,12.99c6.81-1.14-.34-9.15,2-12.99ZM616.66,275.14h17v-4s-10.99,0-10.99,0c-1.1-.96,7.91-8,8.99-9.5,6.55-9.12-1.49-17-10.37-12.37-3.57,1.86-6.52,8.19-1.27,6.74,2.57-.71,1.35-5.51,7.98-3.9,1.13.27,1.74,3.38,1.65,4.47-.54,6.54-14.57,10.09-12.98,18.56ZM641.74,254.23c4.03-2.07,9.13.57,11.9-3.59-2.88-4.16-8.17-2.02-12.52-2.57l-1.32.2-2.14,14.86c6.49-3.86,16.59-1.16,10.47,6.97-5.37,7.13-6.66-7.22-11.44-1.48,1.57,7.75,12.58,9.21,16.18,2.23,4.35-8.43-2.25-17.12-11.21-13.72l.07-2.91ZM604.65,281.13c-.12-5.86-6.37-8.51-6.95-14.62-.49-5.15,2.84-8.65,2.47-13.37-.82,1.19-2.96.37-3.52,1.7s-2.75,9.44-2.67,10.65c.13,2.21,7.44,18.94,10.68,15.63ZM659.66,284.13c-.95-1.89-9.5-9.39-11-7.98,1.22,6.14,4.74,8.62,11,7.98ZM631.65,277.14c-10.53,3.41,5.77,10.84,6.5,17,5.44-6.96-7.32-10.14-6.5-17Z"/>
    <path d="M641.74,254.23l-.07,2.91c8.95-3.4,15.56,5.3,11.21,13.72-3.6,6.97-14.6,5.52-16.18-2.23,4.78-5.73,6.07,8.61,11.44,1.48,6.13-8.14-3.98-10.84-10.47-6.97l2.14-14.86,1.32-.2c4.35.55,9.63-1.59,12.52,2.57-2.77,4.16-7.87,1.52-11.9,3.59Z"/>
    <path d="M616.66,275.14c-1.59-8.47,12.44-12.02,12.98-18.56.09-1.09-.51-4.2-1.65-4.47-6.63-1.61-5.4,3.19-7.98,3.9-5.25,1.45-2.3-4.88,1.27-6.74,8.88-4.63,16.92,3.25,10.37,12.37-1.08,1.5-10.09,8.54-8.99,9.5h11s0,4.01,0,4.01h-17Z"/>
    <path d="M668.66,273.13c0-8.02,4.2-15.33,2.93-23.43-.92-5.81-8.31-10.53-9.93-16.55,10.12,2.91,13.53,14.84,12.98,24.48-.09,1.5-1.93,19.73-5.98,15.5Z"/>
    <path d="M604.65,281.13c-3.23,3.31-10.54-13.42-10.68-15.63-.07-1.21,2.1-9.29,2.67-10.65s2.7-.52,3.52-1.7c.37,4.71-2.96,8.22-2.47,13.37.58,6.11,6.83,8.76,6.95,14.62Z"/>
    <path d="M645.35,229.31c1.06-.17,3.34.19,3.28,1.33-.06,1.21-17.28,11.29-18.48,15.48-1.46-1.17-1.59-1.25-1.09-3.05.88-3.15,13.14-13.25,16.29-13.76Z"/>
    <path d="M631.65,277.14c-.82,6.86,11.94,10.04,6.5,17-.73-6.15-17.03-13.58-6.5-17Z"/>
    <path d="M659.66,284.13c-6.25.64-9.78-1.85-11-7.98,1.49-1.4,10.05,6.09,11,7.98Z"/>
    <path d="M619.66,234.14c-2.34,3.84,4.81,11.85-2,12.99l-1-13h3Z"/>
  </g>
  <g id="FDI_34" data-name="FDI 34">
    <path class="cls-1" d="M606.31,1140.48c9.61,11.13,12.95,39.7,4.18,51.99-5.89,8.26-34.14,19.22-44.28,17.6-13.68-2.19-40.85-31.54-42.45-45.54-5.59-48.99,55.57-55.3,82.55-24.05ZM574.65,1126.14c-3.04-2.88-6.62,9.49-7.97,11.26-1.88,2.46-7.55,5.14-9.03,8.73,5.01,1.97,8.18-5.73,12.71-6.78,3.81-.88,17.38,2.67,18.28.27.7-1.86-1.65-1.82-2.8-2.16-4.28-1.26-8.75-1.53-13.19-1.33l2-9.99ZM547.66,1133.15c-4.15-3.09-19.95,16.28-12.5,20.99,2.05-3.36,2.61-8.03,4.64-11.35,2.3-3.76,6.92-4.66,7.85-9.64ZM574.66,1197.13c2.04,2.04,10.6-8.49,12.5-9.99,2.5-1.98,5.9-2.45,8-5l1.48-35.01c-.92.32-2.63,1.71-3.04,2.45-3.03,5.38.44,22.86-1.11,29.89-2.14,1.88-20.83,14.66-17.83,17.66ZM567.4,1173.88c1.37-1.46,1.64-6.26,1.25-8.22-.43-2.16-2.76-3.36-2.76-4,0-1.04,2.95-3.15,1.55-7.82-.99-3.3-6.61-5.26-9.82-4.3-4.64,1.39-8.13,9.27-2.57,7.5,1.56-.5,1.71-3.98,4.12-3.98,11.73,3.47-2.47,8.54-2.5,9.58,3.66,2.88,8.57.22,7.8,6.78-.25,2.12-2.15,3.85-4.35,3.68-3.49-.28-3.4-6.57-8.47-4.95-1.36,8.07,11.38,10.37,15.73,5.74ZM588.42,1166.34c-.26-.45-2.15-.51-2.61-1.83-.91-2.62,1.66-16.33-2.63-15.37-2.92,1.96-14.84,18.66-12.52,20.99l10.07.44.93,5c4.01,2.2,4.18-2.17,4.12-5.37l2.77-.15c.16-1.15.46-2.71-.12-3.71ZM539.66,1163.14c.81,5.08,8.97,4.73,11.97,1.49.02-2.39-10.04-1.3-11.97-1.49ZM557.66,1194.13l-8.5-21.99c-.86,3.49-3.85,1.42-6.78,2.21-.84.23-6.35,2.65-6.54,2.95-.58.94-1.01,4.19,1.33,3.85,3.92-.56,7.16-6.39,11.32-3.82-.8,2.6,6.14,19.68,9.18,16.79Z"/>
    <path d="M567.4,1173.88c-4.36,4.63-17.09,2.33-15.73-5.74,5.07-1.62,4.97,4.67,8.47,4.95,2.2.18,4.1-1.56,4.35-3.68.76-6.56-4.14-3.89-7.8-6.78.03-1.04,14.23-6.11,2.5-9.58-2.41,0-2.56,3.48-4.12,3.98-5.56,1.77-2.07-6.1,2.57-7.5,3.21-.96,8.82,1,9.82,4.3,1.4,4.67-1.55,6.78-1.55,7.82,0,.64,2.33,1.84,2.76,4,.39,1.97.12,6.76-1.25,8.22Z"/>
    <path d="M588.42,1166.34c.58.99.28,2.56.12,3.71l-2.77.15c.06,3.21-.11,7.57-4.12,5.37l-.93-5-10.07-.44c-2.32-2.33,9.6-19.03,12.52-20.99,4.29-.96,1.72,12.75,2.63,15.37.46,1.32,2.34,1.37,2.61,1.83ZM582.66,1166.14c-.45-3.31,1.81-9.88-2.99-10l-5.01,9.99h8Z"/>
    <path d="M574.66,1197.13c-3-3,15.69-15.78,17.83-17.66,1.55-7.03-1.92-24.51,1.11-29.89.41-.73,2.12-2.12,3.04-2.45l-1.48,35.01c-2.11,2.55-5.51,3.02-8,5-1.9,1.5-10.45,12.04-12.5,9.99Z"/>
    <path d="M574.65,1126.14l-2,9.99c4.44-.2,8.91.07,13.19,1.33,1.15.34,3.5.3,2.8,2.16-.9,2.4-14.47-1.15-18.28-.27-4.53,1.04-7.7,8.74-12.71,6.78,1.47-3.59,7.15-6.27,9.03-8.73,1.35-1.77,4.93-14.14,7.97-11.26Z"/>
    <path d="M557.66,1194.13c-3.04,2.88-9.98-14.19-9.18-16.79-4.16-2.57-7.39,3.26-11.32,3.82-2.34.33-1.91-2.91-1.33-3.85.19-.31,5.7-2.73,6.54-2.95,2.93-.79,5.92,1.28,6.78-2.21l8.5,21.99Z"/>
    <path d="M547.66,1133.15c-.93,4.98-5.55,5.88-7.85,9.64-2.03,3.32-2.59,7.99-4.64,11.35-7.45-4.71,8.34-24.07,12.5-20.99Z"/>
    <path d="M539.66,1163.14c1.94.2,12-.89,11.97,1.49-3.01,3.24-11.17,3.59-11.97-1.49Z"/>
  </g>
  <g id="FDI_44" data-name="FDI 44">
    <path class="cls-1" d="M151.45,1121.43c28.03-2.98,52.54,14.94,45.95,44.95-3.86,17.57-31.19,45.77-50.26,43.76-9.74-1.03-35.02-12.86-38.21-22.79-9.89-30.8,10.49-62.52,42.51-65.92ZM155.96,1137.83c-2.74-3.02-2.01-9.79-6.29-11.7l.98,9.99-16.98,2.51c4.02,3.52,10.01.59,14.48.44,6.72-.22,12.54,3.28,14.02,10.06,6.29-6.05-3.52-8.35-6.19-11.3ZM188.65,1154.13c1.13-9.54-3.85-19.65-13.99-20.99-.42,5.29,7.99,6.63,9.49,10s-1.18,10.35,4.5,10.99ZM127.66,1151.64c.6,9.86-.44,20.09,0,30,2.33,3.49,6.48,4.15,9.5,6.5,3.21,2.51,5.67,8.22,9.02,8.98,1.41.32,2.91.52,2.49-1.49-4.84-6.87-9.22-10.94-17.01-14.24-4.28-11.19,2.51-23.75-3.51-34.25-3.41-.33-.54,3.63-.49,4.49ZM148.65,1149.14c-2.75-2.84-15.23,15.52-16,18.47,3.12,2.91,7.29,2.32,11,1.53-.44,4.18-.22,8.78,5.02,6.42-2.07-4.48,2.9-6.5,3.04-7.06.96-4.01-2.79-3.95-3.08-5.07-.61-2.37.67-13.63.02-14.3ZM172.66,1168.12c-8.45-4.15.48-16.16-7.98-18.98-1.41,5.43-12.73,13.91-10.91,19.36.99,2.98,6.69.97,9.23,1.8,2.87.93,1.31,5.64,4.65,4.84.4-3.85.43-6.92,5.01-7.01ZM183.65,1163.14c-.52-.23-11.68-1.68-9.99,1.48,1.48,2.77,10.24,3.32,9.99-1.48ZM187.65,1180.13c.79-4.6-15.11-8.89-15.99-8,1.97,8.88-6.34,14-6,22l3.01-.68,6.06-16.24,12.92,2.91Z"/>
    <path d="M148.65,1149.14c.65.67-.63,11.92-.02,14.3.29,1.11,4.03,1.06,3.08,5.07-.13.56-5.11,2.57-3.04,7.06-5.24,2.36-5.46-2.25-5.02-6.42-3.7.79-7.88,1.38-11-1.53.76-2.95,13.24-21.31,16-18.47ZM144.65,1157.14c-1.74-1.95-6.19,6.93-6.99,7.98l7,.02v-8Z"/>
    <path d="M172.66,1168.12c-4.57.09-4.61,3.16-5.01,7.01-3.34.79-1.78-3.91-4.65-4.84-2.54-.82-8.24,1.18-9.23-1.8-1.82-5.44,9.5-13.92,10.91-19.36,8.46,2.82-.47,14.83,7.98,18.98ZM165.66,1165.14c-.3-3.13,1.57-8.97-2.99-9l-4.01,8.99h7Z"/>
    <path d="M127.66,1151.64c-.05-.86-2.93-4.82.49-4.49,6.02,10.5-.77,23.06,3.51,34.25,7.79,3.3,12.17,7.37,17.01,14.24.42,2.01-1.08,1.81-2.49,1.49-3.35-.76-5.82-6.48-9.02-8.98-3.01-2.35-7.16-3.01-9.5-6.5-.44-9.91.6-20.14,0-30Z"/>
    <path d="M155.96,1137.83c2.67,2.95,12.49,5.24,6.19,11.3-1.48-6.78-7.29-10.28-14.02-10.06-4.46.15-10.45,3.07-14.48-.44l16.98-2.51-.98-9.99c4.28,1.91,3.55,8.68,6.29,11.7Z"/>
    <path d="M187.65,1180.13l-12.92-2.91-6.06,16.24-3.01.68c-.34-8,7.97-13.13,6-22,.88-.89,16.78,3.4,15.99,8Z"/>
    <path d="M188.65,1154.13c-5.68-.64-3.04-7.69-4.5-10.99s-9.91-4.72-9.49-10c10.14,1.34,15.12,11.45,13.99,20.99Z"/>
    <path d="M183.65,1163.14c.26,4.8-8.5,4.25-9.99,1.48-1.69-3.16,9.47-1.71,9.99-1.48Z"/>
  </g>
  <g id="FDI_14" data-name="FDI 14">
    <path class="cls-1" d="M105.41,138.35c1.29-.21,2.32-.29,3.63-.16,8.02.76,29.61,20.01,35.6,26.48,29.24,31.59,13.29,66.1-30.2,61.2-6.9-.78-28.39-5.81-34.33-8.67-8.98-4.33-12.64-12.88-12.53-22.57.06-5.18.65-13.69,1.2-18.86.97-9.12,3.99-12.65,10.4-18.6,4.04-3.75,21.89-18.1,26.22-18.82ZM118.65,176.14c-.56-6.94,1.4-19.68-6.98-21.99,1.95,5.19,1.32,14.95,3.2,19.29.68,1.56,2.34,2.08,3.78,2.71ZM101.66,155.15c-4.96-.94-5.47,4.92-7.27,6.72-1.22,1.23-5.29,2.01-7.26,3.24-8.98,5.61-8.87,18.73-10.46,28.02l3.01-.66c1.36-4.46.89-10.12,2.45-14.41.71-1.95,1.99-1.73,2.48-2.69.74-1.45.58-3.55,1.61-5.19,2.19-3.48,7.91-3.41,10.42-5.57,2.08-1.79,3.28-7.05,5.03-9.46ZM134.65,161.14c-2.6-.52-1.74.58-2.5,1.95-2.28,4.14-3.09,9.36-3.49,14.04,4.95-3.52,6.69-10.14,5.98-15.99ZM105.66,174.14c-3.59-1.89-12.98,6.81-10.99,9l5.99-2v18h5v-25ZM125.66,174.14c-4.75-2.55-15.41,15.5-14.94,17.43.73,3.02,7.98.56,10.01,2.01l.94,5.58,3.44.05,1.79-5.89,2.76-.17-.45-3.06-3.55-.94v-15ZM132.66,208.13c7.03.01,13.11-10.74,13.76-16.75.21-1.95.69-2.89-1.27-4.22-1.39.03-3.45,9.37-4.64,11.34-2.37,3.88-8.22,4.53-7.85,9.64ZM85.66,201.13c4.55-.48,9.94-.56,12.98-4.49-1.47-2.25-1.93-.84-3.58-.62-2.97.39-9.25,1.21-9.4,5.11ZM112.65,196.14l-4.99,1.01c3.2,2.99.04,4.88,0,8.47-.04,3.17,2.03,7.16,2.03,10.51h2.97c-.94-6.96-.94-13.02,0-19.99Z"/>
    <path d="M125.66,174.14v15l3.55.94.45,3.06-2.76.17-1.79,5.89-3.44-.05-.94-5.58c-2.03-1.45-9.28,1.01-10.01-2.01-.47-1.93,10.19-19.98,14.94-17.43ZM121.65,181.14c-2.29-.58-1.64.43-2.28,1.26-.77.99-4.43,7.1-3.7,7.73h6s-.01-8.99-.01-8.99Z"/>
    <path d="M101.66,155.15c-1.75,2.41-2.95,7.67-5.03,9.46-2.51,2.16-8.24,2.09-10.42,5.57-1.03,1.64-.87,3.75-1.61,5.19-.49.95-1.77.74-2.48,2.69-1.56,4.29-1.09,9.95-2.45,14.41l-3.01.66c1.6-9.29,1.48-22.41,10.46-28.02,1.97-1.23,6.04-2.01,7.26-3.24,1.8-1.81,2.31-7.66,7.27-6.72Z"/>
    <path d="M105.66,174.14v25h-5v-18l-5.99,2c-1.99-2.19,7.41-10.89,10.99-9Z"/>
    <path d="M118.65,176.14c-1.44-.63-3.1-1.15-3.78-2.71-1.89-4.34-1.26-14.1-3.2-19.29,8.38,2.32,6.43,15.06,6.98,21.99Z"/>
    <path d="M132.66,208.13c-.37-5.11,5.48-5.76,7.85-9.64,1.2-1.96,3.26-11.3,4.64-11.34,1.96,1.33,1.48,2.27,1.27,4.22-.66,6.02-6.73,16.77-13.76,16.75Z"/>
    <path d="M112.65,196.14c-.94,6.97-.94,13.03,0,20h-2.97c0-3.35-2.07-7.35-2.03-10.52.05-3.6,3.2-5.49,0-8.47l4.99-1.01Z"/>
    <path d="M134.65,161.14c.71,5.86-1.03,12.48-5.98,15.99.4-4.69,1.21-9.91,3.49-14.04.76-1.38-.1-2.47,2.5-1.95Z"/>
    <path d="M85.66,201.13c.15-3.9,6.43-4.72,9.4-5.11,1.65-.22,2.11-1.63,3.58.62-3.04,3.93-8.43,4.01-12.98,4.49Z"/>
  </g>
  <g id="FDI_24" data-name="FDI 24">
    <path class="cls-1" d="M613.45,138.35c3.02-.24,5.8.64,8.37,2.13l27.68,22.32c5.54,12.43,2.62,28.07,3.93,41.6-2.07,11.18-18.02,14.89-27.35,17.65-18.21,5.39-28.96,8.5-47.11.27s-19.38-32.54-9.5-47.89c4.76-7.39,30.68-31.03,38.51-34.49,1.4-.62,4.03-1.49,5.48-1.6ZM611.65,154.14c-7.25,1.88-5.56,14.05-5.98,19.99,5.96-4.35,2.88-13.62,5.98-19.99ZM646.65,194.14c1.29-1.26-4.34-22.39-6.14-25.35-3.1-5.08-7.73-3.47-10.82-6.18-1.95-1.7-3.29-6.86-6.53-8.45-3.25,2.04.12,6.09,1.97,8.01,3.6,3.75,9.68,4.81,12.39,8.61,4.24,5.96,3.81,15.94,6.05,22.77l3.09.58ZM589.16,161.16c-1.99-.05-.9,2.96-.83,3.79.13,1.56,1.13,9.17,2.83,9.17,5.28-1.37-.2-12.91-2-12.96ZM589.66,200.14h18v-3s-10.99,0-10.99,0c2.1-6.4,10.84-7.43,11.08-15.53.39-12.65-19.55-7.01-16.64-1.47,2.58,4.92,5.27-4,9.85-2.87l2.23,1.87c3.13,6.28-14.97,13.75-13.52,20.99ZM623.66,174.14c-1.65-.08-3.42.2-4.71,1.3-1.7,1.44-10.46,15.96-10.3,18.19l11.02.51v6.01s3.99,0,3.99,0v-6.01s4.02-.57,4.02-.57v-4.43s-4.02,0-4.02,0v-15ZM579.63,187.14c-1.81.12-3.01-1.03-3.01,1.49-.01,8.17,5.28,18.17,14.03,19.5,1.26-1.13-6.85-8.02-7.76-9.73-1.54-2.88-2.53-7.96-3.26-11.26ZM616.65,197.15h-6c-.72,2.9,1.02,5.98,1.04,8.53.01,2.35-3.19,10.91-.52,11.45,4,.81,6.5-16.22,2.48-18.99l3-1ZM638.65,201.13c-.27-4.55-8.76-3.26-11.99-3.99-.48,2.6.49,1.76,1.99,2.45,3.26,1.51,6.42,1.82,10,1.54Z"/>
    <path d="M589.66,200.14c-1.45-7.25,16.65-14.71,13.52-20.99l-2.23-1.87c-4.58-1.14-7.27,7.79-9.85,2.87-2.91-5.54,17.03-11.19,16.64,1.47-.25,8.1-8.99,9.13-11.08,15.53h11s0,3.01,0,3.01h-18Z"/>
    <path d="M623.66,174.14v15h4.01s.01,4.42.01,4.42l-4.03.57v6.01s-3.99,0-3.99,0v-6.01s-11.02-.51-11.02-.51c-.17-2.23,8.6-16.75,10.3-18.19,1.3-1.1,3.06-1.38,4.71-1.3ZM620.65,181.13c-2.85-2.75-5.69,7.41-7,8.99l7,.02v-9.01Z"/>
    <path d="M646.65,194.14l-3.09-.58c-2.25-6.83-1.81-16.82-6.05-22.77-2.71-3.8-8.79-4.86-12.39-8.61-1.85-1.93-5.21-5.97-1.97-8.01,3.24,1.59,4.58,6.75,6.53,8.45,3.09,2.71,7.73,1.1,10.82,6.18,1.81,2.96,7.44,24.09,6.14,25.35Z"/>
    <path d="M579.63,187.14c.73,3.3,1.71,8.38,3.26,11.26.91,1.7,9.03,8.59,7.76,9.73-8.75-1.33-14.04-11.32-14.03-19.5,0-2.52,1.2-1.37,3.01-1.49Z"/>
    <path d="M616.65,197.15l-3,1c4.02,2.77,1.52,19.8-2.48,18.99-2.68-.54.53-9.1.52-11.45-.01-2.56-1.76-5.63-1.04-8.55h6Z"/>
    <path d="M611.65,154.14c-3.1,6.37-.02,15.65-5.98,19.99.43-5.94-1.26-18.12,5.98-19.99Z"/>
    <path d="M589.16,161.16c1.8.05,7.28,11.59,2,12.96-1.7,0-2.7-7.61-2.83-9.17-.07-.83-1.16-3.85.83-3.79Z"/>
    <path d="M638.65,201.13c-3.58.28-6.74-.03-10-1.54-1.5-.69-2.47.15-1.99-2.45,3.23.73,11.72-.56,11.99,3.99Z"/>
  </g>
  <g id="FDI_43" data-name="FDI 43">
    <path class="cls-1" d="M211.44,1187.41c15.53-1.87,24.4,3.42,28.72,18.72,5.95,21.08-8.26,57.46-26.98,69.02-10.33,6.38-23.15-.49-32.83-6.22-11.63-6.88-14.89-11.26-17.38-24.62-1.74-9.36-4.33-24.19.84-32.52,6.57-10.59,35.43-22.91,47.62-24.38ZM220.65,1197.14c-3.82-.04-3.62,4.95-5.14,7.35-3.87,6.16-10.81,6-16.45,8.55-4.06,1.83,1.07,3.25,3.83,2.92,8.17-.97,19.59-9.38,17.76-18.82ZM225.66,1250.14v-18.5c0-4.54,7.05-15.23,7.07-20.01,0-1.66-.16-2.48-1.57-3.47-2.85.07-12.26,35.24-9.34,40.32l.79,1.21,3.06.44ZM197.65,1216.14c-2.85-2.97-16.43,17.24-15.99,19.46.52,2.63,9.77,1.19,12,1.53v6s3.52-.97,3.52-.97l.58-4.97,2.89-.06c1.4-4.2-3.73-3.44-4.07-4.61l1.06-16.38ZM207.38,1236.44c-2.16-1.95-4.09-1-3.74,2.17.71,6.44,19.74,7.12,16.56-4.51-.51-1.85-3.14-4.55-3.2-5.48-.17-2.59,6.25-6.55-.62-10.71-5.72-3.46-17.27,1.25-10.21,7.21,2.37.87.92-3.88,4.17-4.84,4.18-1.23,4.96,2.2,4.19,5.73-2.8.99-6.71.95-5.88,5.11l6.75,1.25.99,2.41c-.14,2.61-2.26,5.68-5.19,5.4s-2.61-2.65-3.83-3.75ZM177.65,1219.14c-2.08-.28-3.8.04-3.94,2.39-.25,3.99,3.75,18.36,5.78,22.28,3.09,5.98,17.9,17.13,24.14,18.86,4.99,1.38,10.74.07,12.03-5.52l-9.24,2.83-20.78-12.31c-5.18-8.54-8.84-18.36-7.98-28.52Z"/>
    <path d="M177.65,1219.14c-.87,10.16,2.8,19.98,7.98,28.52l20.78,12.31,9.24-2.83c-1.29,5.59-7.04,6.91-12.03,5.52-6.24-1.73-21.05-12.88-24.14-18.86-2.02-3.92-6.02-18.28-5.78-22.28.14-2.35,1.87-2.67,3.94-2.39Z"/>
    <path d="M207.38,1236.44c1.22,1.1,1.04,3.48,3.83,3.75,2.93.28,5.06-2.79,5.19-5.4l-.99-2.41-6.75-1.25c-.83-4.16,3.08-4.12,5.88-5.11.77-3.53,0-6.96-4.19-5.73-3.25.96-1.8,5.71-4.17,4.84-7.06-5.96,4.49-10.67,10.21-7.21,6.87,4.16.45,8.12.62,10.71.06.93,2.69,3.63,3.2,5.48,3.18,11.62-15.85,10.95-16.56,4.51-.35-3.18,1.58-4.12,3.74-2.17Z"/>
    <path d="M197.65,1216.14l-1.06,16.38c.33,1.17,5.47.41,4.07,4.61l-2.89.06-.58,4.97-3.52.97v-6c-2.23-.33-11.48,1.11-12-1.53-.44-2.23,13.14-22.44,15.99-19.46ZM193.65,1225.14c-1.24-1.47-8.47,6.43-6.99,8.99h7s-.01-8.99-.01-8.99Z"/>
    <path d="M225.66,1250.14l-3.06-.44-.79-1.21c-2.92-5.08,6.5-40.25,9.34-40.32,1.41.99,1.58,1.81,1.57,3.47-.02,4.78-7.07,15.47-7.07,20.01v18.5Z"/>
    <path d="M220.65,1197.14c1.82,9.44-9.59,17.85-17.76,18.82-2.75.33-7.89-1.09-3.83-2.92,5.64-2.55,12.58-2.39,16.45-8.55,1.51-2.41,1.32-7.4,5.14-7.35Z"/>
  </g>
  <g id="FDI_33" data-name="FDI 33">
    <path class="cls-1" d="M499.4,1187.38c16.31-2.77,48.3,11.26,58.23,24.29,6.28,8.23,4.28,17.94,2.56,27.51-2.54,14.11-5.19,21.71-17.87,29.13-3.38,1.98-17.28,8.9-20.37,9.62-14.95,3.46-29.76-19.81-35.15-31.43-6.39-13.74-9.59-28.31-4.33-43.04,2.5-7.01,9.29-14.78,16.93-16.07ZM504.62,1197.15l-2.96-.02c-.04,14.76,17.46,21.84,29.99,16.99l-12.43-2.05c-6.93-2.09-13.82-7.18-14.59-14.92ZM492.5,1209.31l-3.83.32c3.3,8.49,8.8,17.66,9.04,26.98.11,4.35-3.45,12.93,1.93,13.53,2.23-1.69.52-19.55-.24-23.24-.46-2.23-5.99-17.04-6.91-17.58ZM515.66,1229.12c8.48-7.89-3-17.35-11.06-10.55-6.34,5.35.31,8.59,2.18,5.95.2-6.93,9.23-3.66,6.44.65-1.48,2.29-5.55.13-4.59,5.46.11.58,9.83.88,4.94,7.92-4.12,5.93-6.04-4.81-9.88-2.96-7.05,3.39,6.2,12.05,13.49,5.57,3.49-3.1,4.21-11.39-1.52-12.04ZM526.97,1238.79c-1.04-.75-6.14-7.34-5.13-.36s16.17,6.24,17.64-1.03c1.13-5.57-3.56-7.63-3.57-8.74,0-.46,1.51-1.73,1.72-3.06,1.17-7.48-5.35-11.58-11.89-7.87-3.01,1.71-7.09,7.12-.6,7.43,1.14-.17.53-5.99,5.99-5.06l2.45,1.66c1.5,6.19-6.9,4-5.93,9.38l5.64.95c3.14,2.07-.35,11.04-6.32,6.71ZM507.66,1257.14c-1.43,1.33,6.18,8.46,9.11,6.44,7.53-4.39,21.83-10.34,25.77-18.06,1.89-3.71,8.28-23.65,5.17-25.94l-3.05-.44c-.07,5.59-.93,11.8-2.3,17.2-3.59,14.19-5.78,10.85-16.62,17.38-2.29,1.38-6.64,5.91-7.8,6.25-4.14,1.21-6.52-2.42-10.27-2.83Z"/>
    <path d="M515.66,1229.12c5.73.65,5.01,8.94,1.52,12.04-7.29,6.48-20.54-2.18-13.49-5.57,3.84-1.85,5.76,8.89,9.88,2.96,4.89-7.03-4.83-7.34-4.94-7.92-.97-5.33,3.11-3.17,4.59-5.46,2.79-4.31-6.24-7.58-6.44-.65-1.88,2.64-8.52-.61-2.18-5.95,8.06-6.8,19.55,2.66,11.06,10.55Z"/>
    <path d="M507.66,1257.14c3.76.41,6.14,4.04,10.27,2.83,1.16-.34,5.51-4.87,7.8-6.25,10.84-6.53,13.03-3.19,16.62-17.38,1.37-5.4,2.23-11.61,2.3-17.2l3.05.44c3.11,2.28-3.28,22.23-5.17,25.94-3.93,7.72-18.24,13.67-25.77,18.06-2.92,2.02-10.53-5.11-9.11-6.44Z"/>
    <path d="M526.97,1238.79c5.97,4.33,9.46-4.64,6.32-6.71l-5.64-.95c-.97-5.38,7.42-3.19,5.93-9.38l-2.45-1.66c-5.47-.92-4.85,4.89-5.99,5.06-6.49-.31-2.41-5.71.6-7.43,6.54-3.72,13.05.38,11.89,7.87-.21,1.33-1.73,2.61-1.72,3.06.02,1.11,4.7,3.16,3.57,8.74-1.47,7.27-16.68,7.66-17.64,1.03-1.01-6.98,4.09-.39,5.13.36Z"/>
    <path d="M492.5,1209.31c.92.54,6.44,15.35,6.91,17.58.76,3.69,2.47,21.56.24,23.24-5.38-.59-1.82-9.18-1.93-13.53-.24-9.32-5.75-18.49-9.04-26.98l3.83-.32Z"/>
    <path d="M504.62,1197.15c.77,7.74,7.67,12.84,14.59,14.92l12.43,2.05c-12.53,4.85-30.03-2.23-29.99-16.99l2.96.02Z"/>
  </g>
  <g id="FDI_12" data-name="FDI 12">
    <path class="cls-1" d="M245.45,23.34c11.92-1.02,15.32,23.78,16.19,32.31,1.78,17.44,2.03,42.78-10.48,56.5-17.94,19.66-38.39-5.76-49.49-19.53-17.63-21.89-28.49-36.39,1.67-54.28,13.3-7.89,27.67-10.08,42.1-14.99ZM251.65,45.13c.32-21.28-26.74-5.5-36.3.2-1.55.93-15.73,8.85-12.69,11.8,3.5.61,4.69-2.77,7.08-4.41,6.04-4.13,30.44-18.61,36.78-14.46.76.5,1.18,7.71,5.13,6.87ZM226.66,78.14h17l-.98-3.52-9.02-1.49c-.96-.95,16.84-12.23,7.06-20.55-3.88-3.3-8.13-3.18-11.61.51-2.09,2.22-5.05,8.94-.44,6.57,1.18-.61,7.85-8.97,9.87-2.87,2.88,8.65-14.5,11.99-11.89,21.35ZM218.66,51.14l-10.99,7.51c-1.37,2.72,6.14,1.32,6.99.49v19h4v-27ZM246.66,79.14c-.31.48-4.13.42-4.94,5.56-.61,3.89.01,15.65,5.93,13.44.62-4.15-3.1-7.58-3.04-11.52.01-.63,1.81-7.17,2.04-7.48.08-.11,1.67.47,1.99-.69.97-3.46.71-9.46,2-13.31-7.01.16-2.61,11.86-3.99,13.99ZM229.67,101.13c4.24.57,2.29-6.43,1.53-9.04-2.27-7.75-7.66-11.25-15.53-11.96-1.93,1.83,9.16,6.72,10.04,7.72,2.62,2.97,2.43,9.46,3.96,13.27Z"/>
    <path d="M226.66,78.14c-2.61-9.36,14.77-12.7,11.89-21.35-2.03-6.09-8.69,2.26-9.87,2.87-4.61,2.37-1.65-4.35.44-6.57,3.47-3.69,7.73-3.81,11.61-.51,9.78,8.32-8.02,19.6-7.06,20.55l9.02,1.49.98,3.52h-17Z"/>
    <path d="M251.65,45.13c-3.94.84-4.36-6.37-5.13-6.87-6.34-4.16-30.74,10.32-36.78,14.46-2.39,1.63-3.58,5.02-7.08,4.41-3.04-2.95,11.14-10.87,12.69-11.8,9.55-5.7,36.62-21.48,36.3-.2Z"/>
    <path d="M218.66,51.14v27h-4v-19c-.85.83-8.36,2.24-6.99-.49l10.99-7.51Z"/>
    <path d="M229.67,101.13c-1.54-3.8-1.34-10.29-3.96-13.27-.89-1-11.98-5.89-10.04-7.72,7.87.7,13.26,4.21,15.53,11.96.76,2.61,2.71,9.61-1.53,9.04Z"/>
    <path d="M246.66,79.14c1.39-2.14-3.02-13.83,3.99-13.99-1.3,3.84-1.03,9.85-2,13.31-.32,1.15-1.91.58-1.99.69-.24.31-2.03,6.85-2.04,7.48-.06,3.93,3.66,7.37,3.04,11.52-5.92,2.22-6.55-9.55-5.93-13.44.81-5.13,4.62-5.07,4.94-5.56Z"/>
  </g>
  <g id="FDI_22" data-name="FDI 22">
    <path class="cls-1" d="M472.37,24.35c15.83-3.6,64.96,17.98,66.25,36.4.29,4.12-2.03,8.49-3.79,12.05-7.53,15.24-31.8,46.06-49.93,47.1-5.37.31-12-5.38-15.07-9.44-11.66-15.47-11.08-44.24-7.86-62.51,1.07-6.05,3.91-22.12,10.4-23.6ZM501.33,41.48c-9.45-5.13-30.19-14.76-29.67,3.65,5.23,1.01,4.21-6.12,5.1-6.89,3.93-3.4,27.13,7.79,31.59,10.7,4.13,2.69,6.97,8,12.3,8.19,3.78-3.73-15.65-12.18-17.38-13.15-1.04-.58-1.46-2.24-1.94-2.5ZM474.66,78.14h18v-4s-11-1.01-11-1.01c4.02-4.8,9.62-6.21,10.04-13.53.72-12.72-14.98-12.23-16.03-.47,4.65,1.51,3.97-2.5,5.96-3.51,1.78-.91,5.19-1.05,5.92,1.17,2.75,8.27-14.12,12.83-12.89,21.35ZM494.66,78.14h18v-5.01s-10.99,0-10.99,0c-.55-2.38.4-1.62,1.3-2.23,2.2-1.5,5.43-2.45,7.17-4.79,7.98-10.71-6.51-21.94-12.94-11.94-3.19,4.96-.98,8.98,2.15,4.14.36-.55-.04-1.54,1.02-2.2,1.32-.82,6.35-1.09,7.14.17,4.11,6.54-13.46,14.67-12.86,21.85ZM480.65,80.13h-2.99c-.2,3.79.31,7.67-.05,11.46-.26,2.69-4.83,7.7,2.03,5.91,1.01-5.87,2.03-11.45,1.01-17.37ZM507.65,80.14c-11.11.37-17.28,9.61-17.99,19.99,5.67.56,4.93-7.19,7.53-10.96,2.86-4.14,9.09-4.49,10.46-9.03Z"/>
    <path d="M494.66,78.14c-.6-7.18,16.97-15.32,12.86-21.85-.79-1.26-5.83-.98-7.14-.17-1.06.66-.67,1.65-1.02,2.2-3.13,4.84-5.33.82-2.15-4.14,6.43-10,20.92,1.22,12.94,11.94-1.74,2.34-4.98,3.29-7.17,4.79-.9.61-1.85-.15-1.3,2.23h11s0,5.01,0,5.01h-18Z"/>
    <path d="M474.66,78.14c-1.23-8.53,15.64-13.08,12.89-21.35-.74-2.21-4.14-2.07-5.92-1.17-1.99,1.02-1.31,5.02-5.96,3.51,1.05-11.76,16.75-12.25,16.03.47-.41,7.31-6.02,8.73-10.04,13.53l11.01,1.01v4h-18.01Z"/>
    <path d="M501.33,41.48c.48.26.91,1.92,1.94,2.5,1.73.97,21.16,9.42,17.38,13.15-5.33-.19-8.17-5.5-12.3-8.19-4.46-2.91-27.66-14.1-31.59-10.7-.89.77.13,7.9-5.1,6.89-.52-18.41,20.21-8.78,29.67-3.65Z"/>
    <path d="M507.65,80.14c-1.37,4.54-7.6,4.9-10.46,9.03-2.6,3.77-1.86,11.52-7.53,10.96.71-10.38,6.88-19.62,17.99-19.99Z"/>
    <path d="M480.65,80.13c1.02,5.92,0,11.5-1.01,17.37-6.86,1.78-2.29-3.22-2.03-5.91.36-3.79-.15-7.67.05-11.46h2.99Z"/>
  </g>
  <g id="FDI_31" data-name="FDI 31">
    <path class="cls-1" d="M365.87,1311.93c-6.39-13.7,1.29-27.22,4.71-40.37,2.4-9.21,4.87-31.76,14.07-35.93,11.91-5.39,22.22,6.27,27.53,15.48,5.98,10.37,14.39,28.47,18.22,39.77,2.65,7.83,3.38,12.28-5.22,16.27-17.06,7.91-41.14,8.36-59.31,4.77ZM404.65,1272.13l-5.49-23.99c-3.86,4.41.13,10.16,1.26,14.73.84,3.39-1.28,8.86,4.23,9.26ZM380.66,1288.14c.69,13.34,19.21,8.47,16.99-2.48-.46-2.25-2.63-3.06-2.86-4.17-.27-1.36,2-3.31,1.86-5.78-.44-7.75-13.91-8.3-16.04-1.08l4.03,2.5c-.32-7.19,9.63-4.07,6.82.83-1.92,1.4-5.65,1.39-4.8,4.67l5.99,1.51-.44,7.06c-5.36,3.9-6.8-3.43-11.56-3.05ZM413.66,1295.14v-23.5c0-.3-2.02-1.85-2.5-2.47-2.99,3.98-9.64,3.75-8.49,9.96l6.99-1.99v18h4ZM421.66,1297.13l-2.46-3.01c-8.17,4.86-30.9,10.41-39.59,7.57-5.28-1.73-1.42-8.96-4.47-9.55-4.17-.8-6.99,11.95,4.97,13.04,14.37,1.31,28.37-3.06,41.55-8.06Z"/>
    <path d="M380.66,1288.14c4.76-.37,6.2,6.95,11.56,3.05l.44-7.06-5.99-1.51c-.86-3.28,2.88-3.27,4.8-4.67,2.81-4.9-7.14-8.01-6.82-.83l-4.03-2.5c2.13-7.22,15.59-6.67,16.04,1.08.14,2.47-2.13,4.42-1.86,5.78.22,1.11,2.4,1.92,2.86,4.17,2.22,10.95-16.31,15.82-16.99,2.48Z"/>
    <path d="M421.66,1297.13c-13.18,5-27.18,9.37-41.55,8.06-11.96-1.09-9.14-13.84-4.97-13.04,3.05.58-.82,7.81,4.47,9.55,8.68,2.85,31.42-2.71,39.59-7.57l2.46,3.01Z"/>
    <path d="M413.66,1295.14h-4v-18l-6.99,1.99c-1.15-6.21,5.51-5.98,8.49-9.96.49.61,2.5,2.17,2.5,2.47v23.5Z"/>
    <path d="M404.65,1272.13c-5.51-.4-3.39-5.87-4.23-9.26-1.13-4.57-5.12-10.32-1.26-14.73l5.49,23.99Z"/>
  </g>
  <g id="FDI_32" data-name="FDI 32">
    <path class="cls-1" d="M440,1229.47c4.44-4.47,12.52-4,18.21-2.39,10.32,2.92,17.14,17.78,23.47,25.53,11.87,14.51,34.87,23.59,8.65,39.69-10.94,6.72-35.42,14.42-47.96,11.62-6.44-1.44-8.51-14.69-9.43-20.57-1.98-12.57-2.29-44.48,7.06-53.89ZM453.66,1240.14c-1.11,1.09,6.54,16.55,9.48,15.99,4.49-.86-2.77-7.76-3.33-8.65-.82-1.3-3.36-10.07-6.15-7.34ZM443.66,1273.14c-1.54,8.92,9.91,11.65,14.86,5.36,5.6-7.11-1.6-10.28-1.61-11.84,0-.47,1.53-1.74,1.73-3.07,1.89-12.67-13.78-11.81-14.99-2.95-.67,4.88,6.13-2.17,6.71-2.34,1.31-.38,3-.44,3.86.78,3.68,5.25-7.11,5.2-5.56,10.05l6.56.94c2.72,7.81-5.58,12.14-7.72,3.23l-3.84-.16ZM464.16,1281.14h15c1.07,0,1.91-2.88,1.5-3.99h-10.99c-1.7-1.52,6.51-6.95,7.43-8.07,7.52-9.14-1.92-19.54-10.41-13.41-2.06,1.49-4.66,6.05-1.51,7.47,2.07.93,1.66-2.72,2.72-3.75,1.35-1.32,4.82-1.76,6.35-.34l1.44,2.64c-.92,8-11,9.24-12.88,17.14l1.36,2.32ZM480.66,1283.15c-10.68,1.54-19.7,10.56-31.04,7.53l-1.97-5.54c-5.67.15-2.08,8.08,1.02,9.48,5.94,2.68,28.78-4.21,31.99-11.47Z"/>
    <path d="M443.66,1273.14l3.84.16c2.14,8.91,10.43,4.58,7.72-3.23l-6.56-.94c-1.55-4.85,9.24-4.81,5.56-10.05-.86-1.22-2.55-1.16-3.86-.78-.59.17-7.38,7.22-6.71,2.34,1.21-8.86,16.89-9.71,14.99,2.95-.2,1.33-1.73,2.6-1.73,3.07.02,1.56,7.21,4.73,1.61,11.84-4.95,6.29-16.4,3.56-14.86-5.36Z"/>
    <path d="M464.16,1281.14l-1.36-2.32c1.88-7.9,11.96-9.14,12.88-17.14l-1.44-2.64c-1.53-1.43-5-.99-6.35.34-1.06,1.03-.65,4.68-2.72,3.75-3.16-1.42-.56-5.98,1.51-7.47,8.49-6.13,17.94,4.28,10.41,13.41-.93,1.12-9.13,6.55-7.43,8.06h10.99c.42,1.13-.43,4.01-1.5,4.01h-15Z"/>
    <path d="M480.66,1283.15c-3.21,7.26-26.05,14.15-31.99,11.47-3.11-1.4-6.7-9.33-1.02-9.48l1.97,5.54c11.34,3.03,20.36-5.99,31.04-7.53Z"/>
    <path d="M453.66,1240.14c2.79-2.74,5.34,6.04,6.15,7.34.56.89,7.82,7.79,3.33,8.65-2.94.56-10.59-14.9-9.48-15.99Z"/>
  </g>
  <g id="FDI_41" data-name="FDI 41">
    <path class="cls-1" d="M356.39,1311.87c-19.66,4.42-39.63,3.07-58.25-4.71-6.23-2.6-8.07-3.64-7.25-11.24,1.1-10.14,20.07-49.77,27.73-56.31,6.4-5.47,16.76-7.69,23.07-1,5.7,6.04,6.19,20.49,8.45,28.55,4.02,14.32,13.27,29.93,6.24,44.72ZM325.65,1248.14c-2.83-.51-1.64.68-2.25,2.19-.84,2.08-5.47,16.12-4.74,16.8,3.53.89,3.64-2.05,4.74-4.74,1.96-4.77,2.75-9.05,2.25-14.25ZM336.66,1277.14v16.5l2.49,1.5c1.26-.99,2.17-1.85,2.49-3.52.45-2.37.42-17.76-.18-19.76-.36-1.2-1.47-1.87-2.29-2.69l-9.54,8.47,1.56,2.52,5.48-3.01ZM322.66,1270.13l-5.51.99c-.84,4.85-11.74,13.39-10.42,17.4l1.58,1.46,9.35.15v5.01s5,0,5,0c-1.79-4.95,2.55-4.98,3.05-7.52.63-3.23-1.83-2.39-2.53-3.47-1.61-2.49.08-10.6-.53-14.03ZM350.65,1292.14l-3.05.44-1.08,8.42c-1.55,2.51-18.47.53-22.09-.13-7.97-1.47-14.81-6.75-22.77-5.23,3.23,2.85,6.92,4.69,10.99,6.01,11.22,3.63,41.6,10.86,38-9.5Z"/>
    <path d="M322.66,1270.13c.61,3.43-1.08,11.53.53,14.03.7,1.08,3.16.24,2.53,3.47-.5,2.54-4.84,2.57-3.05,7.52h-5.01s.01-5.01.01-5.01l-9.35-.15-1.58-1.46c-1.32-4.01,9.58-12.55,10.42-17.4l5.51-.99ZM318.65,1276.14c-1.54-1.76-7.02,8.01-5.99,8.99h6s-.01-8.99-.01-8.99Z"/>
    <path d="M350.65,1292.14c3.6,20.37-26.78,13.13-38,9.5-4.07-1.32-7.77-3.15-10.99-6.01,7.95-1.52,14.79,3.77,22.77,5.23,3.62.67,20.54,2.64,22.09.13l1.08-8.42,3.05-.44Z"/>
    <path d="M336.66,1277.14l-5.48,3.01-1.56-2.52,9.54-8.47c.83.82,1.93,1.5,2.29,2.69.61,2,.64,17.4.18,19.76-.32,1.67-1.22,2.53-2.49,3.52l-2.49-1.5v-16.5Z"/>
    <path d="M325.65,1248.14c.5,5.2-.29,9.48-2.25,14.25-1.11,2.69-1.22,5.64-4.74,4.74-.73-.68,3.91-14.71,4.74-16.8.61-1.51-.58-2.71,2.25-2.19Z"/>
  </g>
  <g id="FDI_42" data-name="FDI 42">
    <path class="cls-1" d="M266.4,1226.38c12.04-2.07,15.8,1.66,19.52,12,7.79,21.63,5.67,44.11-3.67,64.86-18.91,4.06-43.88-4.18-58.51-16.68-11.88-10.15-1.86-13.46,4.43-20.4,8.24-9.1,27.61-37.94,38.23-39.77ZM269.66,1240.15c-5.24-.89-3.61,1.07-5.26,4.21-2.5,4.76-6.94,9.2-6.73,14.77l10.06-12.42,1.93-6.56ZM253.66,1254.14c-4.3-.76-4.82,4.45-7,7.23-2.9,3.7-10.49,9.42-5.36,14.7l8.33-.91c-.04,2.73.48,7.07,4.01,6.98v-6s4.03-.57,4.03-.57v-4.43s-4.02,0-4.02,0v-17ZM260.66,1282.14h14.5c.43,0,3.37-3.24,2.49-3.99h-11.99c.79-4.61,6.81-5.26,9.46-9.04,6.67-9.56-3.25-19.34-11.44-13.44-2.1,1.51-4.64,7.15-1.53,7.45,2.36.23,5.31-9.4,10.02-2.97,4.19,8.42-14.3,12.38-11.51,22ZM274.66,1285.13c.08,1.88-.32,5.52-1.99,6.51-4.87,2.88-23.74-6.28-28.71-9.31-.91-.55-9.17-8.86-9.28-4.7-.18,6.99,33.35,22.35,40.94,15.97,2.76-2.32,5.17-9.46-.96-8.47Z"/>
    <path d="M260.66,1282.14c-2.79-9.62,15.71-13.57,11.51-22-4.7-6.43-7.66,3.2-10.02,2.97-3.12-.3-.57-5.94,1.53-7.45,8.19-5.9,18.11,3.88,11.44,13.44-2.64,3.78-8.67,4.44-9.46,9.03h11.99c.88.77-2.06,4.01-2.49,4.01h-14.5Z"/>
    <path d="M253.66,1254.14v17h4.01s.01,4.42.01,4.42l-4.03.57v6c-3.53.09-4.05-4.26-4.01-6.98l-8.33.91c-5.13-5.28,2.45-10.99,5.36-14.7,2.18-2.78,2.7-7.98,7-7.23ZM250.65,1262.14c-2.38-.55-1.62.4-2.23,1.3-1.64,2.41-2.85,5.39-4.77,7.69l7,.02v-9Z"/>
    <path d="M274.66,1285.13c6.13-.99,3.72,6.15.96,8.47-7.59,6.38-41.12-8.98-40.94-15.97.11-4.15,8.37,4.15,9.28,4.7,4.97,3.03,23.84,12.2,28.71,9.31,1.67-.99,2.07-4.64,1.99-6.51Z"/>
    <path d="M269.66,1240.15l-1.93,6.56-10.06,12.42c-.21-5.57,4.23-10.01,6.73-14.77,1.65-3.14.02-5.11,5.26-4.21Z"/>
  </g>
</svg>